<svg width="125" height="192" viewBox="0 0 125 192" fill="none" xmlns="http://www.w3.org/2000/svg">
<g filter="url(#filter0_d_0_62)">
<path d="M15.9311 0C15.3036 0 14.6902 0.186049 14.1685 0.534633C13.6468 0.883217 13.2402 1.37866 13 1.95833C12.7599 2.538 12.6972 3.17588 12.8196 3.79126C12.942 4.40663 13.2441 4.97189 13.6878 5.41555C14.1315 5.85921 14.6967 6.16136 15.3121 6.28377C15.9275 6.40617 16.5654 6.34335 17.1451 6.10324C17.7248 5.86314 18.2202 5.4565 18.5688 4.93481C18.9174 4.41312 19.1035 3.7998 19.1035 3.17236C19.1035 2.331 18.7693 1.52408 18.1743 0.929145C17.5794 0.334212 16.7724 0 15.9311 0Z" fill="#313131"/>
<path d="M15.9311 25.3793C15.3036 25.3793 14.6902 25.5654 14.1685 25.914C13.6468 26.2626 13.2402 26.758 13 27.3377C12.7599 27.9173 12.6972 28.5552 12.8196 29.1706C12.942 29.786 13.2441 30.3512 13.6878 30.7949C14.1315 31.2385 14.6967 31.5407 15.3121 31.6631C15.9275 31.7855 16.5654 31.7227 17.1451 31.4826C17.7248 31.2425 18.2202 30.8358 18.5688 30.3141C18.9174 29.7925 19.1035 29.1791 19.1035 28.5517C19.1035 27.7103 18.7693 26.9034 18.1743 26.3085C17.5794 25.7135 16.7724 25.3793 15.9311 25.3793Z" fill="#313131"/>
<path d="M15.9311 50.7586C15.3036 50.7586 14.6902 50.9447 14.1685 51.2933C13.6468 51.6419 13.2402 52.1373 13 52.717C12.7599 53.2967 12.6972 53.9346 12.8196 54.55C12.942 55.1654 13.2441 55.7307 13.6878 56.1744C14.1315 56.618 14.6967 56.9202 15.3121 57.0426C15.9275 57.165 16.5654 57.1022 17.1451 56.8621C17.7248 56.622 18.2202 56.2153 18.5688 55.6936C18.9174 55.1719 19.1035 54.5586 19.1035 53.9311C19.1035 53.0897 18.7693 52.2827 18.1743 51.6878C17.5794 51.0928 16.7724 50.7586 15.9311 50.7586Z" fill="#313131"/>
<path d="M15.9311 76.1379C15.3036 76.1379 14.6902 76.324 14.1685 76.6726C13.6468 77.0212 13.2402 77.5166 13 78.0963C12.7599 78.6759 12.6972 79.3138 12.8196 79.9292C12.942 80.5446 13.2441 81.1098 13.6878 81.5535C14.1315 81.9972 14.6967 82.2993 15.3121 82.4217C15.9275 82.5441 16.5654 82.4813 17.1451 82.2412C17.7248 82.0011 18.2202 81.5944 18.5688 81.0727C18.9174 80.5511 19.1035 79.9377 19.1035 79.3103C19.1035 78.4689 18.7693 77.662 18.1743 77.0671C17.5794 76.4722 16.7724 76.1379 15.9311 76.1379Z" fill="#313131"/>
<path d="M15.9311 101.517C15.3036 101.517 14.6902 101.703 14.1685 102.052C13.6468 102.4 13.2402 102.896 13 103.476C12.7599 104.055 12.6972 104.693 12.8196 105.308C12.942 105.924 13.2441 106.489 13.6878 106.933C14.1315 107.376 14.6967 107.679 15.3121 107.801C15.9275 107.923 16.5654 107.861 17.1451 107.62C17.7248 107.38 18.2202 106.974 18.5688 106.452C18.9174 105.93 19.1035 105.317 19.1035 104.69C19.1035 103.848 18.7693 103.041 18.1743 102.446C17.5794 101.851 16.7724 101.517 15.9311 101.517Z" fill="#313131"/>
<path d="M15.9311 126.897C15.3036 126.897 14.6902 127.083 14.1685 127.431C13.6468 127.78 13.2402 128.275 13 128.855C12.7599 129.435 12.6972 130.073 12.8196 130.688C12.942 131.303 13.2441 131.869 13.6878 132.312C14.1315 132.756 14.6967 133.058 15.3121 133.181C15.9275 133.303 16.5654 133.24 17.1451 133C17.7248 132.76 18.2202 132.353 18.5688 131.832C18.9174 131.31 19.1035 130.696 19.1035 130.069C19.1035 129.228 18.7693 128.421 18.1743 127.826C17.5794 127.231 16.7724 126.897 15.9311 126.897Z" fill="#313131"/>
<path d="M15.9311 152.276C15.3036 152.276 14.6902 152.462 14.1685 152.811C13.6468 153.159 13.2402 153.655 13 154.234C12.7599 154.814 12.6972 155.452 12.8196 156.067C12.942 156.683 13.2441 157.248 13.6878 157.691C14.1315 158.135 14.6967 158.437 15.3121 158.56C15.9275 158.682 16.5654 158.619 17.1451 158.379C17.7248 158.139 18.2202 157.732 18.5688 157.211C18.9174 156.689 19.1035 156.076 19.1035 155.448C19.1035 154.607 18.7693 153.8 18.1743 153.205C17.5794 152.61 16.7724 152.276 15.9311 152.276Z" fill="#313131"/>
<path d="M15.9311 177.655C15.3036 177.655 14.6902 177.841 14.1685 178.19C13.6468 178.538 13.2402 179.034 13 179.614C12.7599 180.193 12.6972 180.831 12.8196 181.447C12.942 182.062 13.2441 182.627 13.6878 183.071C14.1315 183.514 14.6967 183.817 15.3121 183.939C15.9275 184.061 16.5654 183.999 17.1451 183.759C17.7248 183.518 18.2202 183.112 18.5688 182.59C18.9174 182.068 19.1035 181.455 19.1035 180.828C19.1035 179.986 18.7693 179.179 18.1743 178.584C17.5794 177.989 16.7724 177.655 15.9311 177.655Z" fill="#313131"/>
<path d="M41.3104 0C40.683 0 40.0696 0.186049 39.5479 0.534633C39.0262 0.883217 38.6195 1.37866 38.3794 1.95833C38.1393 2.538 38.0765 3.17588 38.1989 3.79126C38.3213 4.40663 38.6235 4.97189 39.0671 5.41555C39.5108 5.85921 40.076 6.16136 40.6914 6.28377C41.3068 6.40617 41.9448 6.34335 42.5245 6.10324C43.1041 5.86314 43.5996 5.4565 43.9481 4.93481C44.2967 4.41312 44.4828 3.7998 44.4828 3.17236C44.4828 2.331 44.1486 1.52408 43.5537 0.929145C42.9587 0.334212 42.1518 0 41.3104 0Z" fill="#313131"/>
<path d="M41.3104 25.3793C40.683 25.3793 40.0696 25.5654 39.5479 25.914C39.0262 26.2626 38.6195 26.758 38.3794 27.3377C38.1393 27.9173 38.0765 28.5552 38.1989 29.1706C38.3213 29.786 38.6235 30.3512 39.0671 30.7949C39.5108 31.2385 40.076 31.5407 40.6914 31.6631C41.3068 31.7855 41.9448 31.7227 42.5245 31.4826C43.1041 31.2425 43.5996 30.8358 43.9481 30.3141C44.2967 29.7925 44.4828 29.1791 44.4828 28.5517C44.4828 27.7103 44.1486 26.9034 43.5537 26.3085C42.9587 25.7135 42.1518 25.3793 41.3104 25.3793Z" fill="#313131"/>
<path d="M41.3104 50.7586C40.683 50.7586 40.0696 50.9447 39.5479 51.2933C39.0262 51.6419 38.6195 52.1373 38.3794 52.717C38.1393 53.2967 38.0765 53.9346 38.1989 54.55C38.3213 55.1654 38.6235 55.7307 39.0671 56.1744C39.5108 56.618 40.076 56.9202 40.6914 57.0426C41.3068 57.165 41.9448 57.1022 42.5245 56.8621C43.1041 56.622 43.5996 56.2153 43.9481 55.6936C44.2967 55.1719 44.4828 54.5586 44.4828 53.9311C44.4828 53.0897 44.1486 52.2827 43.5537 51.6878C42.9587 51.0928 42.1518 50.7586 41.3104 50.7586Z" fill="#313131"/>
<path d="M41.3104 76.1379C40.683 76.1379 40.0696 76.324 39.5479 76.6726C39.0262 77.0212 38.6195 77.5166 38.3794 78.0963C38.1393 78.6759 38.0765 79.3138 38.1989 79.9292C38.3213 80.5446 38.6235 81.1098 39.0671 81.5535C39.5108 81.9972 40.076 82.2993 40.6914 82.4217C41.3068 82.5441 41.9448 82.4813 42.5245 82.2412C43.1041 82.0011 43.5996 81.5944 43.9481 81.0727C44.2967 80.5511 44.4828 79.9377 44.4828 79.3103C44.4828 78.4689 44.1486 77.662 43.5537 77.0671C42.9587 76.4722 42.1518 76.1379 41.3104 76.1379Z" fill="#313131"/>
<path d="M41.3104 101.517C40.683 101.517 40.0696 101.703 39.5479 102.052C39.0262 102.4 38.6195 102.896 38.3794 103.476C38.1393 104.055 38.0765 104.693 38.1989 105.308C38.3213 105.924 38.6235 106.489 39.0671 106.933C39.5108 107.376 40.076 107.679 40.6914 107.801C41.3068 107.923 41.9448 107.861 42.5245 107.62C43.1041 107.38 43.5996 106.974 43.9481 106.452C44.2967 105.93 44.4828 105.317 44.4828 104.69C44.4828 103.848 44.1486 103.041 43.5537 102.446C42.9587 101.851 42.1518 101.517 41.3104 101.517Z" fill="#313131"/>
<path d="M41.3104 126.897C40.683 126.897 40.0696 127.083 39.5479 127.431C39.0262 127.78 38.6195 128.275 38.3794 128.855C38.1393 129.435 38.0765 130.073 38.1989 130.688C38.3213 131.303 38.6235 131.869 39.0671 132.312C39.5108 132.756 40.076 133.058 40.6914 133.181C41.3068 133.303 41.9448 133.24 42.5245 133C43.1041 132.76 43.5996 132.353 43.9481 131.832C44.2967 131.31 44.4828 130.696 44.4828 130.069C44.4828 129.228 44.1486 128.421 43.5537 127.826C42.9587 127.231 42.1518 126.897 41.3104 126.897Z" fill="#313131"/>
<path d="M41.3104 152.276C40.683 152.276 40.0696 152.462 39.5479 152.811C39.0262 153.159 38.6195 153.655 38.3794 154.234C38.1393 154.814 38.0765 155.452 38.1989 156.067C38.3213 156.683 38.6235 157.248 39.0671 157.691C39.5108 158.135 40.076 158.437 40.6914 158.56C41.3068 158.682 41.9448 158.619 42.5245 158.379C43.1041 158.139 43.5996 157.732 43.9481 157.211C44.2967 156.689 44.4828 156.076 44.4828 155.448C44.4828 154.607 44.1486 153.8 43.5537 153.205C42.9587 152.61 42.1518 152.276 41.3104 152.276Z" fill="#313131"/>
<path d="M41.3104 177.655C40.683 177.655 40.0696 177.841 39.5479 178.19C39.0262 178.538 38.6195 179.034 38.3794 179.614C38.1393 180.193 38.0765 180.831 38.1989 181.447C38.3213 182.062 38.6235 182.627 39.0671 183.071C39.5108 183.514 40.076 183.817 40.6914 183.939C41.3068 184.061 41.9448 183.999 42.5245 183.759C43.1041 183.518 43.5996 183.112 43.9481 182.59C44.2967 182.068 44.4828 181.455 44.4828 180.828C44.4828 179.986 44.1486 179.179 43.5537 178.584C42.9587 177.989 42.1518 177.655 41.3104 177.655Z" fill="#313131"/>
<path d="M66.6897 0C66.0622 0 65.4488 0.186049 64.9271 0.534633C64.4054 0.883217 63.9988 1.37866 63.7586 1.95833C63.5185 2.538 63.4558 3.17588 63.5782 3.79126C63.7006 4.40663 64.0027 4.97189 64.4464 5.41555C64.8901 5.85921 65.4553 6.16136 66.0707 6.28377C66.6861 6.40617 67.324 6.34335 67.9037 6.10324C68.4834 5.86314 68.9788 5.4565 69.3274 4.93481C69.676 4.41312 69.8621 3.7998 69.8621 3.17236C69.8621 2.331 69.5279 1.52408 68.9329 0.929145C68.338 0.334212 67.5311 0 66.6897 0Z" fill="#313131"/>
<path d="M66.6897 25.3793C66.0622 25.3793 65.4488 25.5654 64.9271 25.914C64.4054 26.2626 63.9988 26.758 63.7586 27.3377C63.5185 27.9173 63.4558 28.5552 63.5782 29.1706C63.7006 29.786 64.0027 30.3512 64.4464 30.7949C64.8901 31.2385 65.4553 31.5407 66.0707 31.6631C66.6861 31.7855 67.324 31.7227 67.9037 31.4826C68.4834 31.2425 68.9788 30.8358 69.3274 30.3141C69.676 29.7925 69.8621 29.1791 69.8621 28.5517C69.8621 27.7103 69.5279 26.9034 68.9329 26.3085C68.338 25.7135 67.5311 25.3793 66.6897 25.3793Z" fill="#313131"/>
<path d="M66.6897 50.7586C66.0622 50.7586 65.4488 50.9447 64.9271 51.2933C64.4054 51.6419 63.9988 52.1373 63.7586 52.717C63.5185 53.2967 63.4558 53.9346 63.5782 54.55C63.7006 55.1654 64.0027 55.7307 64.4464 56.1744C64.8901 56.618 65.4553 56.9202 66.0707 57.0426C66.6861 57.165 67.324 57.1022 67.9037 56.8621C68.4834 56.622 68.9788 56.2153 69.3274 55.6936C69.676 55.1719 69.8621 54.5586 69.8621 53.9311C69.8621 53.0897 69.5279 52.2827 68.9329 51.6878C68.338 51.0928 67.5311 50.7586 66.6897 50.7586Z" fill="#313131"/>
<path d="M66.6897 76.1379C66.0622 76.1379 65.4488 76.324 64.9271 76.6726C64.4054 77.0212 63.9988 77.5166 63.7586 78.0963C63.5185 78.6759 63.4558 79.3138 63.5782 79.9292C63.7006 80.5446 64.0027 81.1098 64.4464 81.5535C64.8901 81.9972 65.4553 82.2993 66.0707 82.4217C66.6861 82.5441 67.324 82.4813 67.9037 82.2412C68.4834 82.0011 68.9788 81.5944 69.3274 81.0727C69.676 80.5511 69.8621 79.9377 69.8621 79.3103C69.8621 78.4689 69.5279 77.662 68.9329 77.0671C68.338 76.4722 67.5311 76.1379 66.6897 76.1379Z" fill="#313131"/>
<path d="M66.6897 101.517C66.0622 101.517 65.4488 101.703 64.9271 102.052C64.4054 102.4 63.9988 102.896 63.7586 103.476C63.5185 104.055 63.4558 104.693 63.5782 105.308C63.7006 105.924 64.0027 106.489 64.4464 106.933C64.8901 107.376 65.4553 107.679 66.0707 107.801C66.6861 107.923 67.324 107.861 67.9037 107.62C68.4834 107.38 68.9788 106.974 69.3274 106.452C69.676 105.93 69.8621 105.317 69.8621 104.69C69.8621 103.848 69.5279 103.041 68.9329 102.446C68.338 101.851 67.5311 101.517 66.6897 101.517Z" fill="#313131"/>
<path d="M66.6897 126.897C66.0622 126.897 65.4488 127.083 64.9271 127.431C64.4054 127.78 63.9988 128.275 63.7586 128.855C63.5185 129.435 63.4558 130.073 63.5782 130.688C63.7006 131.303 64.0027 131.869 64.4464 132.312C64.8901 132.756 65.4553 133.058 66.0707 133.181C66.6861 133.303 67.324 133.24 67.9037 133C68.4834 132.76 68.9788 132.353 69.3274 131.832C69.676 131.31 69.8621 130.696 69.8621 130.069C69.8621 129.228 69.5279 128.421 68.9329 127.826C68.338 127.231 67.5311 126.897 66.6897 126.897Z" fill="#313131"/>
<path d="M66.6897 152.276C66.0622 152.276 65.4488 152.462 64.9271 152.811C64.4054 153.159 63.9988 153.655 63.7586 154.234C63.5185 154.814 63.4558 155.452 63.5782 156.067C63.7006 156.683 64.0027 157.248 64.4464 157.691C64.8901 158.135 65.4553 158.437 66.0707 158.56C66.6861 158.682 67.324 158.619 67.9037 158.379C68.4834 158.139 68.9788 157.732 69.3274 157.211C69.676 156.689 69.8621 156.076 69.8621 155.448C69.8621 154.607 69.5279 153.8 68.9329 153.205C68.338 152.61 67.5311 152.276 66.6897 152.276Z" fill="#313131"/>
<path d="M66.6897 177.655C66.0622 177.655 65.4488 177.841 64.9271 178.19C64.4054 178.538 63.9988 179.034 63.7586 179.614C63.5185 180.193 63.4558 180.831 63.5782 181.447C63.7006 182.062 64.0027 182.627 64.4464 183.071C64.8901 183.514 65.4553 183.817 66.0707 183.939C66.6861 184.061 67.324 183.999 67.9037 183.759C68.4834 183.518 68.9788 183.112 69.3274 182.59C69.676 182.068 69.8621 181.455 69.8621 180.828C69.8621 179.986 69.5279 179.179 68.9329 178.584C68.338 177.989 67.5311 177.655 66.6897 177.655Z" fill="#313131"/>
<path d="M92.069 0C91.4416 0 90.8282 0.186049 90.3065 0.534633C89.7848 0.883217 89.3781 1.37866 89.138 1.95833C88.8979 2.538 88.8351 3.17588 88.9575 3.79126C89.0799 4.40663 89.3821 4.97189 89.8258 5.41555C90.2694 5.85921 90.8347 6.16136 91.45 6.28377C92.0654 6.40617 92.7034 6.34335 93.2831 6.10324C93.8627 5.86314 94.3582 5.4565 94.7068 4.93481C95.0553 4.41312 95.2414 3.7998 95.2414 3.17236C95.2414 2.331 94.9072 1.52408 94.3123 0.929145C93.7173 0.334212 92.9104 0 92.069 0Z" fill="#313131"/>
<path d="M92.069 25.3793C91.4416 25.3793 90.8282 25.5654 90.3065 25.914C89.7848 26.2626 89.3781 26.758 89.138 27.3377C88.8979 27.9173 88.8351 28.5552 88.9575 29.1706C89.0799 29.786 89.3821 30.3512 89.8258 30.7949C90.2694 31.2385 90.8347 31.5407 91.45 31.6631C92.0654 31.7855 92.7034 31.7227 93.2831 31.4826C93.8627 31.2425 94.3582 30.8358 94.7068 30.3141C95.0553 29.7925 95.2414 29.1791 95.2414 28.5517C95.2414 27.7103 94.9072 26.9034 94.3123 26.3085C93.7173 25.7135 92.9104 25.3793 92.069 25.3793Z" fill="#313131"/>
<path d="M92.069 50.7586C91.4416 50.7586 90.8282 50.9447 90.3065 51.2933C89.7848 51.6419 89.3781 52.1373 89.138 52.717C88.8979 53.2967 88.8351 53.9346 88.9575 54.55C89.0799 55.1654 89.3821 55.7307 89.8258 56.1744C90.2694 56.618 90.8347 56.9202 91.45 57.0426C92.0654 57.165 92.7034 57.1022 93.2831 56.8621C93.8627 56.622 94.3582 56.2153 94.7068 55.6936C95.0553 55.1719 95.2414 54.5586 95.2414 53.9311C95.2414 53.0897 94.9072 52.2827 94.3123 51.6878C93.7173 51.0928 92.9104 50.7586 92.069 50.7586Z" fill="#313131"/>
<path d="M92.069 76.1379C91.4416 76.1379 90.8282 76.324 90.3065 76.6726C89.7848 77.0212 89.3781 77.5166 89.138 78.0963C88.8979 78.6759 88.8351 79.3138 88.9575 79.9292C89.0799 80.5446 89.3821 81.1098 89.8258 81.5535C90.2694 81.9972 90.8347 82.2993 91.45 82.4217C92.0654 82.5441 92.7034 82.4813 93.2831 82.2412C93.8627 82.0011 94.3582 81.5944 94.7068 81.0727C95.0553 80.5511 95.2414 79.9377 95.2414 79.3103C95.2414 78.4689 94.9072 77.662 94.3123 77.0671C93.7173 76.4722 92.9104 76.1379 92.069 76.1379Z" fill="#313131"/>
<path d="M92.069 101.517C91.4416 101.517 90.8282 101.703 90.3065 102.052C89.7848 102.4 89.3781 102.896 89.138 103.476C88.8979 104.055 88.8351 104.693 88.9575 105.308C89.0799 105.924 89.3821 106.489 89.8258 106.933C90.2694 107.376 90.8347 107.679 91.45 107.801C92.0654 107.923 92.7034 107.861 93.2831 107.62C93.8627 107.38 94.3582 106.974 94.7068 106.452C95.0553 105.93 95.2414 105.317 95.2414 104.69C95.2414 103.848 94.9072 103.041 94.3123 102.446C93.7173 101.851 92.9104 101.517 92.069 101.517Z" fill="#313131"/>
<path d="M92.069 126.897C91.4416 126.897 90.8282 127.083 90.3065 127.431C89.7848 127.78 89.3781 128.275 89.138 128.855C88.8979 129.435 88.8351 130.073 88.9575 130.688C89.0799 131.303 89.3821 131.869 89.8258 132.312C90.2694 132.756 90.8347 133.058 91.45 133.181C92.0654 133.303 92.7034 133.24 93.2831 133C93.8627 132.76 94.3582 132.353 94.7068 131.832C95.0553 131.31 95.2414 130.696 95.2414 130.069C95.2414 129.228 94.9072 128.421 94.3123 127.826C93.7173 127.231 92.9104 126.897 92.069 126.897Z" fill="#313131"/>
<path d="M92.069 152.276C91.4416 152.276 90.8282 152.462 90.3065 152.811C89.7848 153.159 89.3781 153.655 89.138 154.234C88.8979 154.814 88.8351 155.452 88.9575 156.067C89.0799 156.683 89.3821 157.248 89.8258 157.691C90.2694 158.135 90.8347 158.437 91.45 158.56C92.0654 158.682 92.7034 158.619 93.2831 158.379C93.8627 158.139 94.3582 157.732 94.7068 157.211C95.0553 156.689 95.2414 156.076 95.2414 155.448C95.2414 154.607 94.9072 153.8 94.3123 153.205C93.7173 152.61 92.9104 152.276 92.069 152.276Z" fill="#313131"/>
<path d="M92.069 177.655C91.4416 177.655 90.8282 177.841 90.3065 178.19C89.7848 178.538 89.3781 179.034 89.138 179.614C88.8979 180.193 88.8351 180.831 88.9575 181.447C89.0799 182.062 89.3821 182.627 89.8258 183.071C90.2694 183.514 90.8347 183.817 91.45 183.939C92.0654 184.061 92.7034 183.999 93.2831 183.759C93.8627 183.518 94.3582 183.112 94.7068 182.59C95.0553 182.068 95.2414 181.455 95.2414 180.828C95.2414 179.986 94.9072 179.179 94.3123 178.584C93.7173 177.989 92.9104 177.655 92.069 177.655Z" fill="#313131"/>
<path d="M117.448 0C116.821 0 116.208 0.186049 115.686 0.534633C115.164 0.883217 114.757 1.37866 114.517 1.95833C114.277 2.538 114.214 3.17588 114.337 3.79126C114.459 4.40663 114.761 4.97189 115.205 5.41555C115.649 5.85921 116.214 6.16136 116.829 6.28377C117.445 6.40617 118.083 6.34335 118.662 6.10324C119.242 5.86314 119.737 5.4565 120.086 4.93481C120.435 4.41312 120.621 3.7998 120.621 3.17236C120.621 2.331 120.287 1.52408 119.692 0.929145C119.097 0.334212 118.29 0 117.448 0Z" fill="#313131"/>
<path d="M117.448 25.3793C116.821 25.3793 116.208 25.5654 115.686 25.914C115.164 26.2626 114.757 26.758 114.517 27.3377C114.277 27.9173 114.214 28.5552 114.337 29.1706C114.459 29.786 114.761 30.3512 115.205 30.7949C115.649 31.2385 116.214 31.5407 116.829 31.6631C117.445 31.7855 118.083 31.7227 118.662 31.4826C119.242 31.2425 119.737 30.8358 120.086 30.3141C120.435 29.7925 120.621 29.1791 120.621 28.5517C120.621 27.7103 120.287 26.9034 119.692 26.3085C119.097 25.7135 118.29 25.3793 117.448 25.3793Z" fill="#313131"/>
<path d="M117.448 50.7586C116.821 50.7586 116.208 50.9447 115.686 51.2933C115.164 51.6419 114.757 52.1373 114.517 52.717C114.277 53.2967 114.214 53.9346 114.337 54.55C114.459 55.1654 114.761 55.7307 115.205 56.1744C115.649 56.618 116.214 56.9202 116.829 57.0426C117.445 57.165 118.083 57.1022 118.662 56.8621C119.242 56.622 119.737 56.2153 120.086 55.6936C120.435 55.1719 120.621 54.5586 120.621 53.9311C120.621 53.0897 120.287 52.2827 119.692 51.6878C119.097 51.0928 118.29 50.7586 117.448 50.7586Z" fill="#313131"/>
<path d="M117.448 76.1379C116.821 76.1379 116.208 76.324 115.686 76.6726C115.164 77.0212 114.757 77.5166 114.517 78.0963C114.277 78.6759 114.214 79.3138 114.337 79.9292C114.459 80.5446 114.761 81.1098 115.205 81.5535C115.649 81.9972 116.214 82.2993 116.829 82.4217C117.445 82.5441 118.083 82.4813 118.662 82.2412C119.242 82.0011 119.737 81.5944 120.086 81.0727C120.435 80.5511 120.621 79.9377 120.621 79.3103C120.621 78.4689 120.287 77.662 119.692 77.0671C119.097 76.4722 118.29 76.1379 117.448 76.1379Z" fill="#313131"/>
<path d="M117.448 101.517C116.821 101.517 116.208 101.703 115.686 102.052C115.164 102.4 114.757 102.896 114.517 103.476C114.277 104.055 114.214 104.693 114.337 105.308C114.459 105.924 114.761 106.489 115.205 106.933C115.649 107.376 116.214 107.679 116.829 107.801C117.445 107.923 118.083 107.861 118.662 107.62C119.242 107.38 119.737 106.974 120.086 106.452C120.435 105.93 120.621 105.317 120.621 104.69C120.621 103.848 120.287 103.041 119.692 102.446C119.097 101.851 118.29 101.517 117.448 101.517Z" fill="#313131"/>
<path d="M117.448 126.897C116.821 126.897 116.208 127.083 115.686 127.431C115.164 127.78 114.757 128.275 114.517 128.855C114.277 129.435 114.214 130.073 114.337 130.688C114.459 131.303 114.761 131.869 115.205 132.312C115.649 132.756 116.214 133.058 116.829 133.181C117.445 133.303 118.083 133.24 118.662 133C119.242 132.76 119.737 132.353 120.086 131.832C120.435 131.31 120.621 130.696 120.621 130.069C120.621 129.228 120.287 128.421 119.692 127.826C119.097 127.231 118.29 126.897 117.448 126.897Z" fill="#313131"/>
<path d="M117.448 152.276C116.821 152.276 116.208 152.462 115.686 152.811C115.164 153.159 114.757 153.655 114.517 154.234C114.277 154.814 114.214 155.452 114.337 156.067C114.459 156.683 114.761 157.248 115.205 157.691C115.649 158.135 116.214 158.437 116.829 158.56C117.445 158.682 118.083 158.619 118.662 158.379C119.242 158.139 119.737 157.732 120.086 157.211C120.435 156.689 120.621 156.076 120.621 155.448C120.621 154.607 120.287 153.8 119.692 153.205C119.097 152.61 118.29 152.276 117.448 152.276Z" fill="#313131"/>
<path d="M117.448 177.655C116.821 177.655 116.208 177.841 115.686 178.19C115.164 178.538 114.757 179.034 114.517 179.614C114.277 180.193 114.214 180.831 114.337 181.447C114.459 182.062 114.761 182.627 115.205 183.071C115.649 183.514 116.214 183.817 116.829 183.939C117.445 184.061 118.083 183.999 118.662 183.759C119.242 183.518 119.737 183.112 120.086 182.59C120.435 182.068 120.621 181.455 120.621 180.828C120.621 179.986 120.287 179.179 119.692 178.584C119.097 177.989 118.29 177.655 117.448 177.655Z" fill="#313131"/>
</g>
<defs>
<filter id="filter0_d_0_62" x="-42" y="0" width="166.621" height="192" filterUnits="userSpaceOnUse" color-interpolation-filters="sRGB">
<feFlood flood-opacity="0" result="BackgroundImageFix"/>
<feColorMatrix in="SourceAlpha" type="matrix" values="0 0 0 0 0 0 0 0 0 0 0 0 0 0 0 0 0 0 127 0" result="hardAlpha"/>
<feOffset dy="4"/>
<feGaussianBlur stdDeviation="2"/>
<feComposite in2="hardAlpha" operator="out"/>
<feColorMatrix type="matrix" values="0 0 0 0 0 0 0 0 0 0 0 0 0 0 0 0 0 0 0.25 0"/>
<feBlend mode="normal" in2="BackgroundImageFix" result="effect1_dropShadow_0_62"/>
<feBlend mode="normal" in="SourceGraphic" in2="effect1_dropShadow_0_62" result="shape"/>
</filter>
</defs>
</svg>
