<svg width="159" height="184" viewBox="0 0 159 184" fill="none" xmlns="http://www.w3.org/2000/svg">
<path d="M3.17245 0C2.54501 0 1.93162 0.186049 1.40992 0.534633C0.888218 0.883217 0.481548 1.37866 0.241437 1.95833C0.0013252 2.538 -0.0614323 3.17588 0.0609754 3.79126C0.183383 4.40663 0.485535 4.97189 0.929203 5.41555C1.37287 5.85921 1.9381 6.16136 2.55348 6.28377C3.16887 6.40617 3.80681 6.34335 4.3865 6.10324C4.96618 5.86314 5.46159 5.4565 5.81018 4.93481C6.15877 4.41312 6.34485 3.7998 6.34485 3.17236C6.34485 2.331 6.01063 1.52408 5.41569 0.929145C4.82075 0.334212 4.01382 0 3.17245 0Z" fill="#313131"/>
<path d="M3.17245 25.3793C2.54501 25.3793 1.93162 25.5654 1.40992 25.9139C0.888218 26.2625 0.481548 26.758 0.241437 27.3376C0.0013252 27.9173 -0.0614323 28.5552 0.0609754 29.1706C0.183383 29.7859 0.485535 30.3512 0.929203 30.7949C1.37287 31.2385 1.9381 31.5407 2.55348 31.6631C3.16887 31.7855 3.80681 31.7227 4.3865 31.4826C4.96618 31.2424 5.46159 30.8358 5.81018 30.3141C6.15877 29.7924 6.34485 29.1791 6.34485 28.5517C6.34485 27.7103 6.01063 26.9034 5.41569 26.3085C4.82075 25.7135 4.01382 25.3793 3.17245 25.3793Z" fill="#313131"/>
<path d="M3.17245 50.7588C2.54501 50.7588 1.93162 50.9448 1.40992 51.2934C0.888218 51.642 0.481548 52.1374 0.241437 52.7171C0.0013252 53.2968 -0.0614323 53.9347 0.0609754 54.55C0.183383 55.1654 0.485535 55.7307 0.929203 56.1743C1.37287 56.618 1.9381 56.9202 2.55348 57.0426C3.16887 57.165 3.80681 57.1021 4.3865 56.862C4.96618 56.6219 5.46159 56.2153 5.81018 55.6936C6.15877 55.1719 6.34485 54.5586 6.34485 53.9312C6.34485 53.0898 6.01063 52.2829 5.41569 51.6879C4.82075 51.093 4.01382 50.7588 3.17245 50.7588Z" fill="#313131"/>
<path d="M3.17245 76.1377C2.54501 76.1377 1.93162 76.3238 1.40992 76.6724C0.888218 77.021 0.481548 77.5165 0.241437 78.0962C0.0013252 78.6759 -0.0614323 79.3138 0.0609754 79.9292C0.183383 80.5447 0.485535 81.11 0.929203 81.5537C1.37287 81.9974 1.9381 82.2995 2.55348 82.4219C3.16887 82.5444 3.80681 82.4815 4.3865 82.2414C4.96618 82.0013 5.46159 81.5946 5.81018 81.0729C6.15877 80.5512 6.34485 79.9378 6.34485 79.3103C6.34485 78.4689 6.01063 77.6619 5.41569 77.0669C4.82075 76.4719 4.01382 76.1377 3.17245 76.1377Z" fill="#313131"/>
<path d="M3.17245 101.517C2.54501 101.517 1.93162 101.703 1.40992 102.052C0.888218 102.4 0.481548 102.896 0.241437 103.476C0.0013252 104.055 -0.0614323 104.693 0.0609754 105.309C0.183383 105.924 0.485535 106.489 0.929203 106.933C1.37287 107.377 1.9381 107.679 2.55348 107.801C3.16887 107.924 3.80681 107.861 4.3865 107.621C4.96618 107.381 5.46159 106.974 5.81018 106.452C6.15877 105.931 6.34485 105.317 6.34485 104.69C6.34485 103.848 6.01063 103.041 5.41569 102.446C4.82075 101.851 4.01382 101.517 3.17245 101.517Z" fill="#313131"/>
<path d="M3.17245 126.897C2.54501 126.897 1.93162 127.083 1.40992 127.431C0.888218 127.78 0.481548 128.275 0.241437 128.855C0.0013252 129.435 -0.0614323 130.072 0.0609754 130.688C0.183383 131.303 0.485535 131.868 0.929203 132.312C1.37287 132.756 1.9381 133.058 2.55348 133.18C3.16887 133.303 3.80681 133.24 4.3865 133C4.96618 132.76 5.46159 132.353 5.81018 131.831C6.15877 131.31 6.34485 130.696 6.34485 130.069C6.34485 129.228 6.01063 128.421 5.41569 127.826C4.82075 127.231 4.01382 126.897 3.17245 126.897Z" fill="#313131"/>
<path d="M3.17245 152.276C2.54501 152.276 1.93162 152.462 1.40992 152.81C0.888218 153.159 0.481548 153.655 0.241437 154.234C0.0013252 154.814 -0.0614323 155.452 0.0609754 156.067C0.183383 156.682 0.485535 157.248 0.929203 157.691C1.37287 158.135 1.9381 158.437 2.55348 158.56C3.16887 158.682 3.80681 158.619 4.3865 158.379C4.96618 158.139 5.46159 157.732 5.81018 157.211C6.15877 156.689 6.34485 156.076 6.34485 155.448C6.34485 154.607 6.01063 153.8 5.41569 153.205C4.82075 152.61 4.01382 152.276 3.17245 152.276Z" fill="#313131"/>
<path d="M3.17245 177.655C2.54501 177.655 1.93162 177.841 1.40992 178.19C0.888218 178.538 0.481548 179.034 0.241437 179.614C0.0013252 180.193 -0.0614324 180.831 0.0609754 181.447C0.183383 182.062 0.485535 182.627 0.929203 183.071C1.37287 183.514 1.9381 183.817 2.55348 183.939C3.16887 184.061 3.80681 183.999 4.3865 183.759C4.96618 183.518 5.46159 183.112 5.81018 182.59C6.15877 182.068 6.34485 181.455 6.34485 180.828C6.34485 179.986 6.01063 179.179 5.41569 178.584C4.82075 177.989 4.01382 177.655 3.17245 177.655Z" fill="#313131"/>
<path d="M28.5518 0C27.9244 0 27.311 0.186049 26.7893 0.534633C26.2676 0.883217 25.8609 1.37866 25.6208 1.95833C25.3807 2.538 25.3179 3.17588 25.4403 3.79126C25.5627 4.40663 25.8649 4.97189 26.3086 5.41555C26.7522 5.85921 27.3175 6.16136 27.9329 6.28377C28.5483 6.40617 29.1862 6.34335 29.7659 6.10324C30.3456 5.86314 30.841 5.4565 31.1896 4.93481C31.5382 4.41312 31.7243 3.7998 31.7243 3.17236C31.7243 2.331 31.3901 1.52408 30.7951 0.929145C30.2002 0.334212 29.3932 0 28.5518 0Z" fill="#313131"/>
<path d="M28.5518 25.3793C27.9244 25.3793 27.311 25.5654 26.7893 25.9139C26.2676 26.2625 25.8609 26.758 25.6208 27.3376C25.3807 27.9173 25.3179 28.5552 25.4403 29.1706C25.5627 29.7859 25.8649 30.3512 26.3086 30.7949C26.7522 31.2385 27.3175 31.5407 27.9329 31.6631C28.5483 31.7855 29.1862 31.7227 29.7659 31.4826C30.3456 31.2424 30.841 30.8358 31.1896 30.3141C31.5382 29.7924 31.7243 29.1791 31.7243 28.5517C31.7243 27.7103 31.3901 26.9034 30.7951 26.3085C30.2002 25.7135 29.3932 25.3793 28.5518 25.3793Z" fill="#313131"/>
<path d="M28.5518 50.7588C27.9243 50.7588 27.3109 50.9448 26.7892 51.2934C26.2675 51.642 25.8608 52.1374 25.6207 52.7171C25.3806 53.2968 25.3178 53.9347 25.4402 54.55C25.5627 55.1654 25.8648 55.7307 26.3085 56.1743C26.7522 56.618 27.3174 56.9202 27.9328 57.0426C28.5482 57.165 29.1862 57.1021 29.7659 56.862C30.3455 56.6219 30.841 56.2153 31.1896 55.6936C31.5382 55.1719 31.7242 54.5586 31.7242 53.9312C31.7242 53.0898 31.39 52.2829 30.7951 51.6879C30.2001 51.093 29.3932 50.7588 28.5518 50.7588Z" fill="#313131"/>
<path d="M28.5518 76.1377C27.9243 76.1377 27.3109 76.3238 26.7892 76.6724C26.2675 77.021 25.8608 77.5165 25.6207 78.0962C25.3806 78.6759 25.3178 79.3138 25.4402 79.9292C25.5627 80.5447 25.8648 81.11 26.3085 81.5537C26.7522 81.9974 27.3174 82.2995 27.9328 82.4219C28.5482 82.5444 29.1862 82.4815 29.7659 82.2414C30.3455 82.0013 30.841 81.5946 31.1896 81.0729C31.5382 80.5512 31.7242 79.9378 31.7242 79.3103C31.7242 78.4689 31.39 77.6619 30.7951 77.0669C30.2001 76.4719 29.3932 76.1377 28.5518 76.1377Z" fill="#313131"/>
<path d="M28.5518 101.517C27.9243 101.517 27.3109 101.703 26.7892 102.052C26.2675 102.4 25.8608 102.896 25.6207 103.476C25.3806 104.055 25.3178 104.693 25.4402 105.309C25.5627 105.924 25.8648 106.489 26.3085 106.933C26.7522 107.377 27.3174 107.679 27.9328 107.801C28.5482 107.924 29.1862 107.861 29.7659 107.621C30.3455 107.381 30.841 106.974 31.1896 106.452C31.5382 105.931 31.7242 105.317 31.7242 104.69C31.7242 103.848 31.39 103.041 30.7951 102.446C30.2001 101.851 29.3932 101.517 28.5518 101.517Z" fill="#313131"/>
<path d="M28.5518 126.897C27.9244 126.897 27.311 127.083 26.7893 127.431C26.2676 127.78 25.8609 128.275 25.6208 128.855C25.3807 129.435 25.3179 130.072 25.4403 130.688C25.5627 131.303 25.8649 131.868 26.3086 132.312C26.7522 132.756 27.3175 133.058 27.9329 133.18C28.5483 133.303 29.1862 133.24 29.7659 133C30.3456 132.76 30.841 132.353 31.1896 131.831C31.5382 131.31 31.7243 130.696 31.7243 130.069C31.7243 129.228 31.3901 128.421 30.7951 127.826C30.2002 127.231 29.3932 126.897 28.5518 126.897Z" fill="#313131"/>
<path d="M28.5518 152.276C27.9244 152.276 27.311 152.462 26.7893 152.81C26.2676 153.159 25.8609 153.655 25.6208 154.234C25.3807 154.814 25.3179 155.452 25.4403 156.067C25.5627 156.682 25.8649 157.248 26.3086 157.691C26.7522 158.135 27.3175 158.437 27.9329 158.56C28.5483 158.682 29.1862 158.619 29.7659 158.379C30.3456 158.139 30.841 157.732 31.1896 157.211C31.5382 156.689 31.7243 156.076 31.7243 155.448C31.7243 154.607 31.3901 153.8 30.7951 153.205C30.2002 152.61 29.3932 152.276 28.5518 152.276Z" fill="#313131"/>
<path d="M28.5518 177.655C27.9243 177.655 27.3109 177.841 26.7892 178.19C26.2675 178.538 25.8608 179.034 25.6207 179.614C25.3806 180.193 25.3178 180.831 25.4402 181.447C25.5627 182.062 25.8648 182.627 26.3085 183.071C26.7522 183.514 27.3174 183.817 27.9328 183.939C28.5482 184.061 29.1862 183.999 29.7659 183.759C30.3455 183.518 30.841 183.112 31.1896 182.59C31.5382 182.068 31.7242 181.455 31.7242 180.828C31.7242 179.986 31.39 179.179 30.7951 178.584C30.2001 177.989 29.3932 177.655 28.5518 177.655Z" fill="#313131"/>
<path d="M53.9311 0C53.3036 0 52.6902 0.186049 52.1685 0.534633C51.6468 0.883217 51.2402 1.37866 51 1.95833C50.7599 2.538 50.6972 3.17588 50.8196 3.79126C50.942 4.40663 51.2441 4.97189 51.6878 5.41555C52.1315 5.85921 52.6967 6.16136 53.3121 6.28377C53.9275 6.40617 54.5654 6.34335 55.1451 6.10324C55.7248 5.86314 56.2202 5.4565 56.5688 4.93481C56.9174 4.41312 57.1035 3.7998 57.1035 3.17236C57.1035 2.331 56.7692 1.52408 56.1743 0.929145C55.5794 0.334212 54.7724 0 53.9311 0Z" fill="#313131"/>
<path d="M53.9311 25.3793C53.3036 25.3793 52.6902 25.5654 52.1685 25.9139C51.6468 26.2625 51.2402 26.758 51 27.3376C50.7599 27.9173 50.6972 28.5552 50.8196 29.1706C50.942 29.7859 51.2441 30.3512 51.6878 30.7949C52.1315 31.2385 52.6967 31.5407 53.3121 31.6631C53.9275 31.7855 54.5654 31.7227 55.1451 31.4826C55.7248 31.2424 56.2202 30.8358 56.5688 30.3141C56.9174 29.7924 57.1035 29.1791 57.1035 28.5517C57.1035 27.7103 56.7692 26.9034 56.1743 26.3085C55.5794 25.7135 54.7724 25.3793 53.9311 25.3793Z" fill="#313131"/>
<path d="M53.9311 50.7588C53.3037 50.7588 52.6903 50.9448 52.1686 51.2934C51.6469 51.642 51.2402 52.1374 51.0001 52.7171C50.76 53.2968 50.6972 53.9347 50.8196 54.55C50.9421 55.1654 51.2442 55.7307 51.6879 56.1743C52.1315 56.618 52.6968 56.9202 53.3122 57.0426C53.9275 57.165 54.5655 57.1021 55.1452 56.862C55.7248 56.6219 56.2203 56.2153 56.5688 55.6936C56.9174 55.1719 57.1035 54.5586 57.1035 53.9312C57.1035 53.0898 56.7693 52.2829 56.1744 51.6879C55.5794 51.093 54.7725 50.7588 53.9311 50.7588Z" fill="#313131"/>
<path d="M53.9311 76.1377C53.3037 76.1377 52.6903 76.3238 52.1686 76.6724C51.6469 77.021 51.2402 77.5165 51.0001 78.0962C50.76 78.6759 50.6972 79.3138 50.8196 79.9292C50.9421 80.5447 51.2442 81.11 51.6879 81.5537C52.1315 81.9974 52.6968 82.2995 53.3122 82.4219C53.9275 82.5444 54.5655 82.4815 55.1452 82.2414C55.7248 82.0013 56.2203 81.5946 56.5688 81.0729C56.9174 80.5512 57.1035 79.9378 57.1035 79.3103C57.1035 78.4689 56.7693 77.6619 56.1744 77.0669C55.5794 76.4719 54.7725 76.1377 53.9311 76.1377Z" fill="#313131"/>
<path d="M53.9311 101.517C53.3037 101.517 52.6903 101.703 52.1686 102.052C51.6469 102.4 51.2402 102.896 51.0001 103.476C50.76 104.055 50.6972 104.693 50.8196 105.309C50.9421 105.924 51.2442 106.489 51.6879 106.933C52.1315 107.377 52.6968 107.679 53.3122 107.801C53.9275 107.924 54.5655 107.861 55.1452 107.621C55.7248 107.381 56.2203 106.974 56.5688 106.452C56.9174 105.931 57.1035 105.317 57.1035 104.69C57.1035 103.848 56.7693 103.041 56.1744 102.446C55.5794 101.851 54.7725 101.517 53.9311 101.517Z" fill="#313131"/>
<path d="M53.9311 126.897C53.3036 126.897 52.6902 127.083 52.1685 127.431C51.6468 127.78 51.2402 128.275 51 128.855C50.7599 129.435 50.6972 130.072 50.8196 130.688C50.942 131.303 51.2441 131.868 51.6878 132.312C52.1315 132.756 52.6967 133.058 53.3121 133.18C53.9275 133.303 54.5654 133.24 55.1451 133C55.7248 132.76 56.2202 132.353 56.5688 131.831C56.9174 131.31 57.1035 130.696 57.1035 130.069C57.1035 129.228 56.7692 128.421 56.1743 127.826C55.5794 127.231 54.7724 126.897 53.9311 126.897Z" fill="#313131"/>
<path d="M53.9311 152.276C53.3036 152.276 52.6902 152.462 52.1685 152.81C51.6468 153.159 51.2402 153.655 51 154.234C50.7599 154.814 50.6972 155.452 50.8196 156.067C50.942 156.682 51.2441 157.248 51.6878 157.691C52.1315 158.135 52.6967 158.437 53.3121 158.56C53.9275 158.682 54.5654 158.619 55.1451 158.379C55.7248 158.139 56.2202 157.732 56.5688 157.211C56.9174 156.689 57.1035 156.076 57.1035 155.448C57.1035 154.607 56.7692 153.8 56.1743 153.205C55.5794 152.61 54.7724 152.276 53.9311 152.276Z" fill="#313131"/>
<path d="M53.9311 177.655C53.3037 177.655 52.6903 177.841 52.1686 178.19C51.6469 178.538 51.2402 179.034 51.0001 179.614C50.76 180.193 50.6972 180.831 50.8196 181.447C50.9421 182.062 51.2442 182.627 51.6879 183.071C52.1315 183.514 52.6968 183.817 53.3122 183.939C53.9275 184.061 54.5655 183.999 55.1452 183.759C55.7248 183.518 56.2203 183.112 56.5688 182.59C56.9174 182.068 57.1035 181.455 57.1035 180.828C57.1035 179.986 56.7693 179.179 56.1744 178.584C55.5794 177.989 54.7725 177.655 53.9311 177.655Z" fill="#313131"/>
<path d="M79.3104 0C78.6829 0 78.0696 0.186049 77.5479 0.534633C77.0262 0.883217 76.6195 1.37866 76.3794 1.95833C76.1393 2.538 76.0765 3.17588 76.1989 3.79126C76.3213 4.40663 76.6235 4.97189 77.0671 5.41555C77.5108 5.85921 78.076 6.16136 78.6914 6.28377C79.3068 6.40617 79.9448 6.34335 80.5244 6.10324C81.1041 5.86314 81.5995 5.4565 81.9481 4.93481C82.2967 4.41312 82.4828 3.7998 82.4828 3.17236C82.4828 2.331 82.1486 1.52408 81.5536 0.929145C80.9587 0.334212 80.1518 0 79.3104 0Z" fill="#313131"/>
<path d="M79.3104 25.3793C78.6829 25.3793 78.0696 25.5654 77.5479 25.9139C77.0262 26.2625 76.6195 26.758 76.3794 27.3376C76.1393 27.9173 76.0765 28.5552 76.1989 29.1706C76.3213 29.7859 76.6235 30.3512 77.0671 30.7949C77.5108 31.2385 78.076 31.5407 78.6914 31.6631C79.3068 31.7855 79.9448 31.7227 80.5244 31.4826C81.1041 31.2424 81.5995 30.8358 81.9481 30.3141C82.2967 29.7924 82.4828 29.1791 82.4828 28.5517C82.4828 27.7103 82.1486 26.9034 81.5536 26.3085C80.9587 25.7135 80.1518 25.3793 79.3104 25.3793Z" fill="#313131"/>
<path d="M79.3104 50.7588C78.6829 50.7588 78.0696 50.9448 77.5479 51.2934C77.0262 51.642 76.6195 52.1374 76.3794 52.7171C76.1393 53.2968 76.0765 53.9347 76.1989 54.55C76.3213 55.1654 76.6235 55.7307 77.0671 56.1743C77.5108 56.618 78.076 56.9202 78.6914 57.0426C79.3068 57.165 79.9448 57.1021 80.5244 56.862C81.1041 56.6219 81.5995 56.2153 81.9481 55.6936C82.2967 55.1719 82.4828 54.5586 82.4828 53.9312C82.4828 53.0898 82.1486 52.2829 81.5536 51.6879C80.9587 51.093 80.1518 50.7588 79.3104 50.7588Z" fill="#313131"/>
<path d="M79.3104 76.1377C78.6829 76.1377 78.0696 76.3238 77.5479 76.6724C77.0262 77.021 76.6195 77.5165 76.3794 78.0962C76.1393 78.6759 76.0765 79.3138 76.1989 79.9292C76.3213 80.5447 76.6235 81.11 77.0671 81.5537C77.5108 81.9974 78.076 82.2995 78.6914 82.4219C79.3068 82.5444 79.9448 82.4815 80.5244 82.2414C81.1041 82.0013 81.5995 81.5946 81.9481 81.0729C82.2967 80.5512 82.4828 79.9378 82.4828 79.3103C82.4828 78.4689 82.1486 77.6619 81.5536 77.0669C80.9587 76.4719 80.1518 76.1377 79.3104 76.1377Z" fill="#313131"/>
<path d="M79.3104 101.517C78.6829 101.517 78.0696 101.703 77.5479 102.052C77.0262 102.4 76.6195 102.896 76.3794 103.476C76.1393 104.055 76.0765 104.693 76.1989 105.309C76.3213 105.924 76.6235 106.489 77.0671 106.933C77.5108 107.377 78.076 107.679 78.6914 107.801C79.3068 107.924 79.9448 107.861 80.5244 107.621C81.1041 107.381 81.5995 106.974 81.9481 106.452C82.2967 105.931 82.4828 105.317 82.4828 104.69C82.4828 103.848 82.1486 103.041 81.5536 102.446C80.9587 101.851 80.1518 101.517 79.3104 101.517Z" fill="#313131"/>
<path d="M79.3104 126.897C78.6829 126.897 78.0696 127.083 77.5479 127.431C77.0262 127.78 76.6195 128.275 76.3794 128.855C76.1393 129.435 76.0765 130.072 76.1989 130.688C76.3213 131.303 76.6235 131.868 77.0671 132.312C77.5108 132.756 78.076 133.058 78.6914 133.18C79.3068 133.303 79.9448 133.24 80.5244 133C81.1041 132.76 81.5995 132.353 81.9481 131.831C82.2967 131.31 82.4828 130.696 82.4828 130.069C82.4828 129.228 82.1486 128.421 81.5536 127.826C80.9587 127.231 80.1518 126.897 79.3104 126.897Z" fill="#313131"/>
<path d="M79.3104 152.276C78.6829 152.276 78.0696 152.462 77.5479 152.81C77.0262 153.159 76.6195 153.655 76.3794 154.234C76.1393 154.814 76.0765 155.452 76.1989 156.067C76.3213 156.682 76.6235 157.248 77.0671 157.691C77.5108 158.135 78.076 158.437 78.6914 158.56C79.3068 158.682 79.9448 158.619 80.5244 158.379C81.1041 158.139 81.5995 157.732 81.9481 157.211C82.2967 156.689 82.4828 156.076 82.4828 155.448C82.4828 154.607 82.1486 153.8 81.5536 153.205C80.9587 152.61 80.1518 152.276 79.3104 152.276Z" fill="#313131"/>
<path d="M79.3104 177.655C78.6829 177.655 78.0696 177.841 77.5479 178.19C77.0262 178.538 76.6195 179.034 76.3794 179.614C76.1393 180.193 76.0765 180.831 76.1989 181.447C76.3213 182.062 76.6235 182.627 77.0671 183.071C77.5108 183.514 78.076 183.817 78.6914 183.939C79.3068 184.061 79.9448 183.999 80.5244 183.759C81.1041 183.518 81.5995 183.112 81.9481 182.59C82.2967 182.068 82.4828 181.455 82.4828 180.828C82.4828 179.986 82.1486 179.179 81.5536 178.584C80.9587 177.989 80.1518 177.655 79.3104 177.655Z" fill="#313131"/>
<path d="M104.69 0C104.062 0 103.449 0.186049 102.927 0.534633C102.405 0.883217 101.999 1.37866 101.759 1.95833C101.519 2.538 101.456 3.17588 101.578 3.79126C101.701 4.40663 102.003 4.97189 102.446 5.41555C102.89 5.85921 103.455 6.16136 104.071 6.28377C104.686 6.40617 105.324 6.34335 105.904 6.10324C106.483 5.86314 106.979 5.4565 107.327 4.93481C107.676 4.41312 107.862 3.7998 107.862 3.17236C107.862 2.331 107.528 1.52408 106.933 0.929145C106.338 0.334212 105.531 0 104.69 0Z" fill="#313131"/>
<path d="M104.69 25.3793C104.062 25.3793 103.449 25.5654 102.927 25.9139C102.405 26.2625 101.999 26.758 101.759 27.3376C101.519 27.9173 101.456 28.5552 101.578 29.1706C101.701 29.7859 102.003 30.3512 102.446 30.7949C102.89 31.2385 103.455 31.5407 104.071 31.6631C104.686 31.7855 105.324 31.7227 105.904 31.4826C106.483 31.2424 106.979 30.8358 107.327 30.3141C107.676 29.7924 107.862 29.1791 107.862 28.5517C107.862 27.7103 107.528 26.9034 106.933 26.3085C106.338 25.7135 105.531 25.3793 104.69 25.3793Z" fill="#313131"/>
<path d="M104.69 50.7588C104.062 50.7588 103.449 50.9448 102.927 51.2934C102.405 51.642 101.999 52.1374 101.759 52.7171C101.519 53.2968 101.456 53.9347 101.578 54.55C101.701 55.1654 102.003 55.7307 102.446 56.1743C102.89 56.618 103.455 56.9202 104.071 57.0426C104.686 57.165 105.324 57.1021 105.904 56.862C106.483 56.6219 106.979 56.2153 107.327 55.6936C107.676 55.1719 107.862 54.5586 107.862 53.9312C107.862 53.0898 107.528 52.2829 106.933 51.6879C106.338 51.093 105.531 50.7588 104.69 50.7588Z" fill="#313131"/>
<path d="M104.69 76.1377C104.062 76.1377 103.449 76.3238 102.927 76.6724C102.405 77.021 101.999 77.5165 101.759 78.0962C101.519 78.6759 101.456 79.3138 101.578 79.9292C101.701 80.5447 102.003 81.11 102.446 81.5537C102.89 81.9974 103.455 82.2995 104.071 82.4219C104.686 82.5444 105.324 82.4815 105.904 82.2414C106.483 82.0013 106.979 81.5946 107.327 81.0729C107.676 80.5512 107.862 79.9378 107.862 79.3103C107.862 78.4689 107.528 77.6619 106.933 77.0669C106.338 76.4719 105.531 76.1377 104.69 76.1377Z" fill="#313131"/>
<path d="M104.69 101.517C104.062 101.517 103.449 101.703 102.927 102.052C102.405 102.4 101.999 102.896 101.759 103.476C101.519 104.055 101.456 104.693 101.578 105.309C101.701 105.924 102.003 106.489 102.446 106.933C102.89 107.377 103.455 107.679 104.071 107.801C104.686 107.924 105.324 107.861 105.904 107.621C106.483 107.381 106.979 106.974 107.327 106.452C107.676 105.931 107.862 105.317 107.862 104.69C107.862 103.848 107.528 103.041 106.933 102.446C106.338 101.851 105.531 101.517 104.69 101.517Z" fill="#313131"/>
<path d="M104.69 126.897C104.062 126.897 103.449 127.083 102.927 127.431C102.405 127.78 101.999 128.275 101.759 128.855C101.519 129.435 101.456 130.072 101.578 130.688C101.701 131.303 102.003 131.868 102.446 132.312C102.89 132.756 103.455 133.058 104.071 133.18C104.686 133.303 105.324 133.24 105.904 133C106.483 132.76 106.979 132.353 107.327 131.831C107.676 131.31 107.862 130.696 107.862 130.069C107.862 129.228 107.528 128.421 106.933 127.826C106.338 127.231 105.531 126.897 104.69 126.897Z" fill="#313131"/>
<path d="M104.69 152.276C104.062 152.276 103.449 152.462 102.927 152.81C102.405 153.159 101.999 153.655 101.759 154.234C101.519 154.814 101.456 155.452 101.578 156.067C101.701 156.682 102.003 157.248 102.446 157.691C102.89 158.135 103.455 158.437 104.071 158.56C104.686 158.682 105.324 158.619 105.904 158.379C106.483 158.139 106.979 157.732 107.327 157.211C107.676 156.689 107.862 156.076 107.862 155.448C107.862 154.607 107.528 153.8 106.933 153.205C106.338 152.61 105.531 152.276 104.69 152.276Z" fill="#313131"/>
<path d="M104.69 177.655C104.062 177.655 103.449 177.841 102.927 178.19C102.405 178.538 101.999 179.034 101.759 179.614C101.519 180.193 101.456 180.831 101.578 181.447C101.701 182.062 102.003 182.627 102.446 183.071C102.89 183.514 103.455 183.817 104.071 183.939C104.686 184.061 105.324 183.999 105.904 183.759C106.483 183.518 106.979 183.112 107.327 182.59C107.676 182.068 107.862 181.455 107.862 180.828C107.862 179.986 107.528 179.179 106.933 178.584C106.338 177.989 105.531 177.655 104.69 177.655Z" fill="#313131"/>
<path d="M130.069 0C129.442 0 128.828 0.186049 128.306 0.534633C127.785 0.883217 127.378 1.37866 127.138 1.95833C126.898 2.538 126.835 3.17588 126.958 3.79126C127.08 4.40663 127.382 4.97189 127.826 5.41555C128.269 5.85921 128.835 6.16136 129.45 6.28377C130.065 6.40617 130.703 6.34335 131.283 6.10324C131.863 5.86314 132.358 5.4565 132.707 4.93481C133.055 4.41312 133.241 3.7998 133.241 3.17236C133.241 2.331 132.907 1.52408 132.312 0.929145C131.717 0.334212 130.91 0 130.069 0Z" fill="#313131"/>
<path d="M130.069 25.3793C129.442 25.3793 128.828 25.5654 128.306 25.9139C127.785 26.2625 127.378 26.758 127.138 27.3376C126.898 27.9173 126.835 28.5552 126.958 29.1706C127.08 29.7859 127.382 30.3512 127.826 30.7949C128.269 31.2385 128.835 31.5407 129.45 31.6631C130.065 31.7855 130.703 31.7227 131.283 31.4826C131.863 31.2424 132.358 30.8358 132.707 30.3141C133.055 29.7924 133.241 29.1791 133.241 28.5517C133.241 27.7103 132.907 26.9034 132.312 26.3085C131.717 25.7135 130.91 25.3793 130.069 25.3793Z" fill="#313131"/>
<path d="M130.069 50.7588C129.442 50.7588 128.828 50.9448 128.307 51.2934C127.785 51.642 127.378 52.1374 127.138 52.7171C126.898 53.2968 126.835 53.9347 126.958 54.55C127.08 55.1654 127.382 55.7307 127.826 56.1743C128.269 56.618 128.835 56.9202 129.45 57.0426C130.065 57.165 130.703 57.1021 131.283 56.862C131.863 56.6219 132.358 56.2153 132.707 55.6936C133.055 55.1719 133.241 54.5586 133.241 53.9312C133.241 53.0898 132.907 52.2829 132.312 51.6879C131.717 51.093 130.91 50.7588 130.069 50.7588Z" fill="#313131"/>
<path d="M130.069 76.1377C129.442 76.1377 128.828 76.3238 128.307 76.6724C127.785 77.021 127.378 77.5165 127.138 78.0962C126.898 78.6759 126.835 79.3138 126.958 79.9292C127.08 80.5447 127.382 81.11 127.826 81.5537C128.269 81.9974 128.835 82.2995 129.45 82.4219C130.065 82.5444 130.703 82.4815 131.283 82.2414C131.863 82.0013 132.358 81.5946 132.707 81.0729C133.055 80.5512 133.241 79.9378 133.241 79.3103C133.241 78.4689 132.907 77.6619 132.312 77.0669C131.717 76.4719 130.91 76.1377 130.069 76.1377Z" fill="#313131"/>
<path d="M130.069 101.517C129.442 101.517 128.828 101.703 128.307 102.052C127.785 102.4 127.378 102.896 127.138 103.476C126.898 104.055 126.835 104.693 126.958 105.309C127.08 105.924 127.382 106.489 127.826 106.933C128.269 107.377 128.835 107.679 129.45 107.801C130.065 107.924 130.703 107.861 131.283 107.621C131.863 107.381 132.358 106.974 132.707 106.452C133.055 105.931 133.241 105.317 133.241 104.69C133.241 103.848 132.907 103.041 132.312 102.446C131.717 101.851 130.91 101.517 130.069 101.517Z" fill="#313131"/>
<path d="M130.069 126.897C129.442 126.897 128.828 127.083 128.306 127.431C127.785 127.78 127.378 128.275 127.138 128.855C126.898 129.435 126.835 130.072 126.958 130.688C127.08 131.303 127.382 131.868 127.826 132.312C128.269 132.756 128.835 133.058 129.45 133.18C130.065 133.303 130.703 133.24 131.283 133C131.863 132.76 132.358 132.353 132.707 131.831C133.055 131.31 133.241 130.696 133.241 130.069C133.241 129.228 132.907 128.421 132.312 127.826C131.717 127.231 130.91 126.897 130.069 126.897Z" fill="#313131"/>
<path d="M130.069 152.276C129.442 152.276 128.828 152.462 128.306 152.81C127.785 153.159 127.378 153.655 127.138 154.234C126.898 154.814 126.835 155.452 126.958 156.067C127.08 156.682 127.382 157.248 127.826 157.691C128.269 158.135 128.835 158.437 129.45 158.56C130.065 158.682 130.703 158.619 131.283 158.379C131.863 158.139 132.358 157.732 132.707 157.211C133.055 156.689 133.241 156.076 133.241 155.448C133.241 154.607 132.907 153.8 132.312 153.205C131.717 152.61 130.91 152.276 130.069 152.276Z" fill="#313131"/>
<path d="M130.069 177.655C129.442 177.655 128.828 177.841 128.307 178.19C127.785 178.538 127.378 179.034 127.138 179.614C126.898 180.193 126.835 180.831 126.958 181.447C127.08 182.062 127.382 182.627 127.826 183.071C128.269 183.514 128.835 183.817 129.45 183.939C130.065 184.061 130.703 183.999 131.283 183.759C131.863 183.518 132.358 183.112 132.707 182.59C133.055 182.068 133.241 181.455 133.241 180.828C133.241 179.986 132.907 179.179 132.312 178.584C131.717 177.989 130.91 177.655 130.069 177.655Z" fill="#313131"/>
<path d="M155.448 0C154.821 0 154.207 0.186049 153.686 0.534633C153.164 0.883217 152.757 1.37866 152.517 1.95833C152.277 2.538 152.214 3.17588 152.337 3.79126C152.459 4.40663 152.761 4.97189 153.205 5.41555C153.649 5.85921 154.214 6.16136 154.829 6.28377C155.445 6.40617 156.083 6.34335 156.662 6.10324C157.242 5.86314 157.737 5.4565 158.086 4.93481C158.435 4.41312 158.621 3.7998 158.621 3.17236C158.621 2.331 158.287 1.52408 157.692 0.929145C157.097 0.334212 156.29 0 155.448 0Z" fill="#313131"/>
<path d="M155.448 25.3793C154.821 25.3793 154.207 25.5654 153.686 25.9139C153.164 26.2625 152.757 26.758 152.517 27.3376C152.277 27.9173 152.214 28.5552 152.337 29.1706C152.459 29.7859 152.761 30.3512 153.205 30.7949C153.649 31.2385 154.214 31.5407 154.829 31.6631C155.445 31.7855 156.083 31.7227 156.662 31.4826C157.242 31.2424 157.737 30.8358 158.086 30.3141C158.435 29.7924 158.621 29.1791 158.621 28.5517C158.621 27.7103 158.287 26.9034 157.692 26.3085C157.097 25.7135 156.29 25.3793 155.448 25.3793Z" fill="#313131"/>
<path d="M155.448 50.7588C154.821 50.7588 154.207 50.9448 153.686 51.2934C153.164 51.642 152.757 52.1374 152.517 52.7171C152.277 53.2968 152.214 53.9347 152.337 54.55C152.459 55.1654 152.761 55.7307 153.205 56.1743C153.649 56.618 154.214 56.9202 154.829 57.0426C155.445 57.165 156.083 57.1021 156.662 56.862C157.242 56.6219 157.737 56.2153 158.086 55.6936C158.435 55.1719 158.621 54.5586 158.621 53.9312C158.621 53.0898 158.287 52.2829 157.692 51.6879C157.097 51.093 156.29 50.7588 155.448 50.7588Z" fill="#313131"/>
<path d="M155.448 76.1377C154.821 76.1377 154.207 76.3238 153.686 76.6724C153.164 77.021 152.757 77.5165 152.517 78.0962C152.277 78.6759 152.214 79.3138 152.337 79.9292C152.459 80.5447 152.761 81.11 153.205 81.5537C153.649 81.9974 154.214 82.2995 154.829 82.4219C155.445 82.5444 156.083 82.4815 156.662 82.2414C157.242 82.0013 157.737 81.5946 158.086 81.0729C158.435 80.5512 158.621 79.9378 158.621 79.3103C158.621 78.4689 158.287 77.6619 157.692 77.0669C157.097 76.4719 156.29 76.1377 155.448 76.1377Z" fill="#313131"/>
<path d="M155.448 101.517C154.821 101.517 154.207 101.703 153.686 102.052C153.164 102.4 152.757 102.896 152.517 103.476C152.277 104.055 152.214 104.693 152.337 105.309C152.459 105.924 152.761 106.489 153.205 106.933C153.649 107.377 154.214 107.679 154.829 107.801C155.445 107.924 156.083 107.861 156.662 107.621C157.242 107.381 157.737 106.974 158.086 106.452C158.435 105.931 158.621 105.317 158.621 104.69C158.621 103.848 158.287 103.041 157.692 102.446C157.097 101.851 156.29 101.517 155.448 101.517Z" fill="#313131"/>
<path d="M155.448 126.897C154.821 126.897 154.207 127.083 153.686 127.431C153.164 127.78 152.757 128.275 152.517 128.855C152.277 129.435 152.214 130.072 152.337 130.688C152.459 131.303 152.761 131.868 153.205 132.312C153.649 132.756 154.214 133.058 154.829 133.18C155.445 133.303 156.083 133.24 156.662 133C157.242 132.76 157.737 132.353 158.086 131.831C158.435 131.31 158.621 130.696 158.621 130.069C158.621 129.228 158.287 128.421 157.692 127.826C157.097 127.231 156.29 126.897 155.448 126.897Z" fill="#313131"/>
<path d="M155.448 152.276C154.821 152.276 154.207 152.462 153.686 152.81C153.164 153.159 152.757 153.655 152.517 154.234C152.277 154.814 152.214 155.452 152.337 156.067C152.459 156.682 152.761 157.248 153.205 157.691C153.649 158.135 154.214 158.437 154.829 158.56C155.445 158.682 156.083 158.619 156.662 158.379C157.242 158.139 157.737 157.732 158.086 157.211C158.435 156.689 158.621 156.076 158.621 155.448C158.621 154.607 158.287 153.8 157.692 153.205C157.097 152.61 156.29 152.276 155.448 152.276Z" fill="#313131"/>
<path d="M155.448 177.655C154.821 177.655 154.207 177.841 153.686 178.19C153.164 178.538 152.757 179.034 152.517 179.614C152.277 180.193 152.214 180.831 152.337 181.447C152.459 182.062 152.761 182.627 153.205 183.071C153.649 183.514 154.214 183.817 154.829 183.939C155.445 184.061 156.083 183.999 156.662 183.759C157.242 183.518 157.737 183.112 158.086 182.59C158.435 182.068 158.621 181.455 158.621 180.828C158.621 179.986 158.287 179.179 157.692 178.584C157.097 177.989 156.29 177.655 155.448 177.655Z" fill="#313131"/>
</svg>
