<svg width="94" height="103" viewBox="0 0 94 103" fill="none" xmlns="http://www.w3.org/2000/svg">
<path fill-rule="evenodd" clip-rule="evenodd" d="M64.4203 101.087L56.1176 92.1015C48.771 99.3391 40.3275 103 30.8185 103C21.5357 103 14.0055 100.291 8.33691 94.7908L8.33083 94.7849L8.32484 94.7788C2.7966 89.2297 0 82.7398 0 75.3491C0 69.6285 1.35684 64.688 4.11852 60.5776L4.12134 60.5734C6.78143 56.6573 10.7525 52.7436 15.9918 48.8236L15.3739 48.1413C15.3736 48.141 15.3733 48.1406 15.373 48.1403C8.57656 40.6726 5.03782 33.5171 5.03782 26.6942C5.03782 18.5969 7.8665 12.0657 13.5582 7.2095L13.5644 7.20421C19.2825 2.40548 25.9098 0 33.4054 0C41.5993 0 48.429 2.38923 53.8132 7.22334C59.3 12.0677 62.0454 18.3121 62.0454 25.8742C62.0454 34.5893 57.2564 42.3267 48.0231 49.0931C48.0223 49.0937 48.0215 49.0943 48.0207 49.0949L45.7992 50.743L57.2439 62.8355L83.9667 35.4442V63.7323L70.7402 77.1415L93.3173 101.087H64.4203ZM69.351 77.1259L82.9667 63.3221V37.9012L57.233 64.2788L44.298 50.6116L47.4296 48.2882C56.5068 41.6369 61.0454 34.1655 61.0454 25.8742C61.0454 18.585 58.413 12.6171 53.1483 7.97023C47.9743 3.32341 41.3933 1 33.4054 1C26.1437 1 19.7443 3.32341 14.2073 7.97023C8.76097 12.6171 6.03782 18.8584 6.03782 26.6942C6.03782 33.1633 9.39637 40.088 16.1135 47.4682L17.475 48.9716C17.202 49.1705 16.9323 49.3694 16.6661 49.5681C11.4454 53.4651 7.53958 57.3208 4.94856 61.1353C2.31619 65.0532 1 69.7912 1 75.3491C1 82.456 3.67776 88.6973 9.03328 94.0731C14.4796 99.3577 21.7413 102 30.8185 102C40.0462 102 48.2529 98.4556 55.4386 91.3667C55.6747 91.1337 55.9098 90.8969 56.1437 90.6563L64.8578 100.087H91L69.351 77.1259ZM29.084 63.0432C24.2423 66.5805 22.0151 70.3227 22.0151 74.2558C22.0151 76.6249 22.8579 78.7023 24.5912 80.5285C26.3872 82.3272 28.6204 83.2327 31.3631 83.2327C35.2289 83.2327 39.0311 81.4831 42.7789 77.7895L29.084 63.0432ZM23.8744 81.226C21.9682 79.2215 21.0151 76.8981 21.0151 74.2558C21.0151 69.8823 23.5113 65.8733 28.5038 62.2287L29.1846 61.682L44.1619 77.8092C40.0772 82.0916 35.8109 84.2327 31.3631 84.2327C28.3676 84.2327 25.8714 83.2305 23.8744 81.226ZM30.8649 34.7548L30.866 34.7559L32.5809 36.5786L35.6773 34.3585C39.2324 31.746 40.8472 28.9167 40.8472 25.8742C40.8472 23.8671 40.1404 22.2173 38.7084 20.8597L38.698 20.8499L38.6879 20.8397C37.2457 19.3921 35.5054 18.6739 33.4054 18.6739C31.3719 18.6739 29.6599 19.3188 28.2164 20.6068L28.2137 20.6092C26.949 21.7294 26.236 23.4651 26.236 26.0108C26.236 28.4538 27.6603 31.3593 30.8649 34.7548ZM36.2648 35.1678L32.4523 37.9012L30.1377 35.4411C26.8699 31.9788 25.236 28.8354 25.236 26.0108C25.236 23.2774 26.0076 21.2273 27.5507 19.8606C29.1846 18.4028 31.1362 17.6739 33.4054 17.6739C35.7655 17.6739 37.7625 18.4939 39.3964 20.134C41.0303 21.6829 41.8472 23.5963 41.8472 25.8742C41.8472 29.3365 39.9864 32.4344 36.2648 35.1678Z" fill="#313131"/>
</svg>
