<?xml version="1.0" encoding="UTF-8"?>
<svg xmlns="http://www.w3.org/2000/svg" xmlns:xlink="http://www.w3.org/1999/xlink" width="78px" height="85px" viewBox="0 0 78 85" version="1.1">
<g id="surface1">
<path style=" stroke:none;fill-rule:evenodd;fill:rgb(19.215686%,19.215686%,19.215686%);fill-opacity:1;" d="M 53.457031 83.421875 L 46.566406 76.007812 C 40.46875 81.980469 33.464844 85 25.574219 85 C 17.871094 85 11.621094 82.765625 6.917969 78.226562 L 6.914062 78.21875 L 6.90625 78.214844 C 2.320312 73.636719 0 68.28125 0 62.179688 C 0 57.460938 1.125 53.382812 3.417969 49.992188 L 3.417969 49.988281 C 5.628906 46.757812 8.921875 43.527344 13.269531 40.292969 L 12.757812 39.726562 C 7.117188 33.566406 4.179688 27.660156 4.179688 22.027344 C 4.179688 15.347656 6.527344 9.957031 11.25 5.949219 L 11.253906 5.945312 C 16 1.984375 21.5 0 27.71875 0 C 34.519531 0 40.1875 1.972656 44.652344 5.960938 C 49.207031 9.957031 51.484375 15.113281 51.484375 21.351562 C 51.484375 28.542969 47.511719 34.929688 39.847656 40.515625 L 38.003906 41.875 L 47.5 51.855469 L 69.675781 29.25 L 69.675781 52.59375 L 58.699219 63.660156 L 77.433594 83.421875 Z M 57.546875 63.648438 L 68.84375 52.257812 L 68.84375 31.277344 L 47.492188 53.046875 L 36.757812 41.765625 L 39.355469 39.847656 C 46.886719 34.359375 50.65625 28.195312 50.65625 21.351562 C 50.65625 15.335938 48.46875 10.414062 44.101562 6.578125 C 39.808594 2.742188 34.347656 0.824219 27.71875 0.824219 C 21.695312 0.824219 16.382812 2.742188 11.789062 6.578125 C 7.269531 10.414062 5.011719 15.5625 5.011719 22.027344 C 5.011719 27.367188 7.796875 33.082031 13.371094 39.171875 L 14.5 40.414062 C 14.273438 40.578125 14.050781 40.742188 13.828125 40.90625 C 9.496094 44.121094 6.257812 47.304688 4.105469 50.453125 C 1.921875 53.683594 0.828125 57.59375 0.828125 62.179688 C 0.828125 68.046875 3.050781 73.195312 7.496094 77.632812 C 12.015625 81.996094 18.039062 84.175781 25.574219 84.175781 C 33.230469 84.175781 40.039062 81.25 46.003906 75.398438 C 46.199219 75.207031 46.394531 75.011719 46.585938 74.8125 L 53.816406 82.597656 L 75.511719 82.597656 Z M 24.132812 52.027344 C 20.117188 54.945312 18.269531 58.035156 18.269531 61.277344 C 18.269531 63.234375 18.96875 64.949219 20.40625 66.457031 C 21.894531 67.941406 23.75 68.6875 26.023438 68.6875 C 29.234375 68.6875 32.386719 67.242188 35.496094 64.195312 Z M 19.8125 67.03125 C 18.230469 65.378906 17.4375 63.460938 17.4375 61.277344 C 17.4375 57.667969 19.507812 54.363281 23.652344 51.355469 L 24.21875 50.902344 L 36.644531 64.210938 C 33.253906 67.746094 29.714844 69.511719 26.023438 69.511719 C 23.539062 69.511719 21.46875 68.683594 19.8125 67.03125 Z M 25.609375 28.679688 L 25.613281 28.683594 L 27.035156 30.1875 L 29.605469 28.355469 C 32.554688 26.199219 33.894531 23.863281 33.894531 21.351562 C 33.894531 19.695312 33.308594 18.335938 32.121094 17.214844 L 32.109375 17.207031 L 32.101562 17.199219 C 30.90625 16.003906 29.460938 15.410156 27.71875 15.410156 C 26.03125 15.410156 24.613281 15.941406 23.414062 17.003906 L 23.410156 17.007812 C 22.363281 17.933594 21.769531 19.363281 21.769531 21.464844 C 21.769531 23.480469 22.953125 25.878906 25.609375 28.679688 Z M 30.09375 29.023438 L 26.929688 31.277344 L 25.007812 29.246094 C 22.296875 26.390625 20.941406 23.796875 20.941406 21.464844 C 20.941406 19.210938 21.582031 17.519531 22.859375 16.390625 C 24.21875 15.1875 25.835938 14.585938 27.71875 14.585938 C 29.679688 14.585938 31.335938 15.261719 32.691406 16.617188 C 34.046875 17.894531 34.722656 19.472656 34.722656 21.351562 C 34.722656 24.210938 33.179688 26.765625 30.09375 29.023438 Z M 30.09375 29.023438 "/>
</g>
</svg>
