<svg width="234" height="52" viewBox="0 0 234 52" fill="none" xmlns="http://www.w3.org/2000/svg">
<g filter="url(#filter0_d_0_183)">
<path fill-rule="evenodd" clip-rule="evenodd" d="M44.7527 9.90724C48.0469 9.96737 48.0096 10.1297 50.1697 8.74301C51.648 7.80262 53.0953 6.81426 54.5091 5.77951C56.7161 4.16186 56.9374 3.47751 53.0274 2.60434C49.845 1.89353 48.8804 1.63735 45.5128 3.55689C40.821 6.23173 27.0968 15.8342 13.126 29.17C9.52749 29.8038 6.56399 31.1809 5.40097 32.0264C4.23674 32.8743 4.15255 33.0932 5.29513 34.7794C6.85625 37.0814 6.91639 37.1332 9.50223 35.8907C10.8781 35.2281 12.9155 34.0374 14.7148 32.6602C22.6527 31.1809 40.3279 31.0751 62.1307 37.2125C64.0635 37.7574 64.5987 38.058 63.1891 34.9899C61.8397 32.0517 61.9984 32.2104 58.2147 31.2855C44.1513 27.8446 29.1089 27.3695 20.4301 28.215C29.2136 20.9145 36.0739 15.0934 44.7527 9.90724Z" fill="black"/>
<path fill-rule="evenodd" clip-rule="evenodd" d="M65.0774 5.1445C63.5283 5.55222 58.9387 6.94377 56.9278 7.5788C54.9168 8.21384 54.7244 8.21504 54.811 10.1189C54.9168 12.4474 55.1285 12.4474 56.5044 11.9182C57.8803 11.389 64.5747 9.30831 66.5062 8.75626C67.988 8.3329 68.0168 7.92518 67.7763 6.53364C67.4191 4.46978 67.0895 4.61531 65.0774 5.1445ZM49.4397 13.2412C47.9315 14.4319 42.0574 19.5915 38.6441 23.4811C37.712 24.5431 37.6915 24.1955 38.5647 26.8944C38.9796 28.1765 39.3573 30.0708 41.1842 28.0058C43.0099 25.9407 51.186 19.1153 52.7736 17.8452C54.3612 16.5751 54.3768 16.3274 53.0117 13.9556C51.5047 11.3373 50.9479 12.0505 49.4397 13.2412Z" fill="black"/>
<path fill-rule="evenodd" clip-rule="evenodd" d="M81.3345 1.89107C77.048 2.12921 73.7923 4.43121 69.1101 8.55894C66.7007 10.6762 64.352 12.8616 62.067 15.1125C59.2803 14.3789 56.9061 13.6212 56.4094 13.4011C55.695 13.0836 55.2981 13.1629 55.4569 14.1949C55.6926 15.7295 56.0967 17.2173 58.8353 18.3996C56.6279 20.7132 54.4952 23.0971 52.4404 25.5473C51.5637 26.5925 51.5673 26.7356 52.758 28.5637C53.8524 30.2415 54.4406 29.9288 55.1393 29.1976C57.5159 26.7127 60.649 23.297 64.1357 19.8524C66.398 20.3347 69.0007 20.6282 70.4463 20.8146C69.8602 21.5516 69.3002 22.309 68.7673 23.0854C67.8064 24.4925 67.9735 25.4667 69.0055 27.1325C70.0374 28.8007 71.3075 30.2283 75.1177 28.7201C78.9267 27.2119 82.2606 24.9099 83.0556 23.6386C83.8494 22.3697 83.9288 22.1304 81.9443 22.6872C79.9598 23.2441 77.4197 24.4324 73.4507 24.9893C74.0088 23.9224 75.0491 22.5983 76.2687 21.2572C79.6134 21.4088 84.5037 21.3378 88.5328 19.3533C91.1126 18.082 90.5966 15.7812 89.0872 13.5586C87.5802 11.336 86.0708 9.74842 81.468 11.6535C78.8232 12.748 76.1015 14.7878 73.6455 17.2269C71.8198 17.0092 69.1955 16.7037 67.751 16.4139C70.9503 13.4961 74.3179 10.784 77.6025 8.87525C80.8402 6.9942 82.6034 7.28766 83.2384 8.79587C83.6678 9.81457 84.4592 10.161 85.3023 9.51028C86.1755 8.83436 86.7708 7.60518 86.6914 6.33511C86.511 3.41973 84.6636 1.70585 81.3345 1.89107ZM83.9432 14.4823C86.9596 13.2122 88.5857 15.7211 85.3588 16.4957C83.6642 16.9022 81.9467 17.3376 80.1751 17.4554C81.6328 16.1926 83.1987 14.7962 83.9432 14.4823ZM150.482 3.66267C150.027 4.02108 148.065 6.01759 145.45 8.73453C142 9.22884 138.485 9.79532 134.924 10.4364C132.39 10.8922 132.92 11.3877 133.445 13.0823C133.868 14.4595 134.222 15.0151 135.667 14.6699C136.966 14.3584 138.305 14.0686 139.66 13.7859C135.195 16.4247 127.708 20.3889 121.084 24.1955C123.374 21.8268 125.739 19.5324 128.176 17.3159C129.233 16.3634 128.915 16.0458 127.858 14.2466C126.705 12.2874 126.587 11.7064 125.105 12.8695C123.626 14.0337 116.216 21.8658 112.194 26.311C111.19 27.4223 111.559 28.322 112.935 29.6979C114.311 31.0738 114.628 31.4972 117.061 30.1213C119.437 28.7802 130.397 22.2988 136.782 17.8559C132.849 22.027 129.204 25.9406 127.621 27.6882C126.618 28.7971 126.881 29.1699 128.257 30.4388C129.686 31.7594 129.951 32.238 132.385 30.8645C134.49 29.6738 146.153 21.588 153.214 16.5462C150.294 19.2908 146.673 22.9651 144.116 26.3122C143.205 27.5077 143.271 27.794 144.647 29.3828C146.021 30.9704 146.34 31.0762 147.609 29.8061C148.88 28.5349 156.183 22.0799 162.744 19.3281C159.676 23.6675 157.877 25.7843 156.923 26.9497C155.972 28.1127 156.395 28.7213 158.194 30.1237C159.653 31.2626 159.806 31.087 161.593 29.9517C164.238 28.2739 167.355 27.0676 170.453 25.7794C170.621 27.8541 171.607 30.2283 173.524 30.2283C175.809 30.2283 184.423 25.3332 192.723 19.5506C193.376 20.3877 194.125 21.0047 194.798 21.5363C191.606 22.9795 188.716 24.4312 186.738 25.5726C185.136 26.4987 184.939 26.4181 185.681 28.0057C186.421 29.5933 186.097 29.7556 187.374 29.9108C198.117 31.2217 202.364 27.794 202.364 24.4071C202.364 22.9182 201.494 21.8886 200.626 21.1442C202.555 20.2169 205.291 19.2968 207.673 18.3948C208.481 21.5627 212.442 21.8321 212.747 23.9585C213.006 25.7674 207.044 26.5239 204.715 26.1006C202.387 25.6772 203.207 27.0074 204.609 28.2174C206.157 29.5536 206.507 30.357 209.796 30.1225C214.451 29.7917 219.001 28.0057 219.001 25.0434C219.001 20.9145 214.173 19.1946 213.394 17.5276C212.765 16.1818 214.769 15.5034 217.31 15.94C218.316 17.156 218.076 17.1668 220.287 16.7735C221.058 16.6405 221.825 16.4885 222.589 16.3177C223.165 16.1793 223.106 16.1793 222.979 15.4637C222.899 14.9815 222.79 14.5044 222.654 14.0349C222.336 12.9236 222.282 12.7648 215.721 12.2356C211.58 11.9025 207.948 13.8389 207.566 16.8024C205.064 17.5769 201.639 18.6269 198.87 19.7731C195.959 17.3688 196.122 15.8209 199.346 15.8209C201.885 15.8209 203.391 16.0458 203.99 16.1517C205.338 16.3898 205.816 15.8871 205.575 14.3524C205.373 13.0439 205.39 13.0258 204.345 12.5664C203.354 12.1298 201.131 11.7076 199.966 11.7076C193.168 11.7076 190.518 14.955 191.864 18.1362C188.333 20.2457 180.206 24.2327 178.287 25.0434C176.48 25.8023 175.447 26.4674 175.867 23.7589C181.033 22.021 189.397 19.1801 189.397 16.575C189.397 13.294 186.647 12.4473 183.682 12.4473C176.741 12.4473 171.936 18.6846 170.728 23.0974C169.412 23.5484 167.364 24.0211 165.813 24.5118C166.898 23.03 168.261 20.1627 168.987 18.3731C169.729 16.5474 169.729 16.5209 168.67 15.4349C167.587 14.3248 167.533 14.3512 166.447 14.5641C164.756 14.8936 161.366 16.4692 159.144 17.9497C160.626 16.4692 160.838 16.1505 161.475 15.4108C162.109 14.6699 161.687 14.1395 160.627 13.0811C159.413 11.8664 159.38 11.4587 158.424 12.0781C154.813 14.0782 145.46 19.7322 136.406 24.9339C138.602 22.6692 145.057 16.3321 149.408 12.0985C161.09 10.4604 174.254 9.91801 188.161 10.9644C190.522 11.1412 189.643 10.2235 188.481 8.74175C187.316 7.26 186.997 6.76568 184.988 6.62496C176.076 6.00316 165.489 6.3796 153.974 7.65328C154.462 6.999 154.107 6.51912 153.237 5.03738C152.082 3.08056 151.964 2.49965 150.482 3.66267ZM188.41 27.6388C190.362 26.3796 194.281 24.5214 196.561 23.2513C198.316 25.1612 195.481 26.9701 188.41 27.6388ZM185.161 15.1029C187.811 15.6333 184.243 17.7729 176.942 20.7773C179.007 17.6731 182.84 14.6375 185.161 15.1029Z" fill="black"/>
<path fill-rule="evenodd" clip-rule="evenodd" d="M136.874 5.43067C136.098 3.45701 136.021 3.42334 135.011 3.42334C121.992 3.42334 110.337 4.79564 98.5707 6.91483C96.4635 7.29489 96.7846 7.67975 97.5965 9.34071C98.4275 11.0413 99.0686 11.0786 99.9105 10.9487C101.467 10.6991 103.02 10.4309 104.57 10.1441C102.767 11.7419 101.01 13.3911 99.3019 15.0897C97.4209 15.3495 95.5486 15.6684 93.6876 16.0459C91.8775 16.4187 92.0664 16.5534 92.6858 18.3539C93.1536 19.7154 93.4579 20.1988 94.2156 20.0678L94.5247 20.0172C90.7061 24.1089 87.0847 28.3605 84.5301 31.8556C83.6077 33.1172 83.4621 33.7655 84.286 36.0579C85.2626 38.7784 85.6427 38.9023 86.7997 37.3809C90.148 32.9741 96.5453 25.5281 102.795 18.9949C106.818 18.6991 111.085 18.4802 116.559 18.7015C118.264 18.77 118.222 18.159 117.372 15.9148C116.634 13.97 116.443 13.8136 115.385 13.8232C113.323 13.8413 110.569 13.9628 107.538 14.1997C109.823 11.9783 111.963 10.0431 113.783 8.61187C117.127 8.23061 121.915 7.85777 125.551 7.88904C126.385 9.378 126.916 9.38281 128.292 9.18316C129.671 8.9835 133.324 8.59382 135.393 8.1861C137.61 7.75312 137.701 7.53904 136.874 5.43067Z" fill="black"/>
<path fill-rule="evenodd" clip-rule="evenodd" d="M44.2716 8.03101C47.5658 8.08995 47.5297 8.25351 49.6898 6.86678C51.1683 5.92667 52.6156 4.93831 54.0292 3.90329C56.235 2.28563 56.4563 1.60129 52.5475 0.728116C49.3651 0.0173104 48.4005 -0.238868 45.0329 1.68067C40.3423 4.35551 26.6169 13.958 12.6461 27.2949C9.0476 27.9288 6.0841 29.3059 4.91987 30.1514C3.75444 30.9969 3.67145 31.2182 4.81403 32.902C6.37516 35.2064 6.4353 35.2581 9.02234 34.0157C10.3982 33.353 12.4357 32.1623 14.2337 30.7852C22.1716 29.3059 39.8468 29.2 61.6496 35.3375C63.5812 35.8799 64.1176 36.183 62.708 33.1149C61.3586 30.1767 61.5173 30.3354 57.7336 29.4105C43.6702 25.9671 28.6278 25.4945 19.949 26.34C28.7337 19.0383 35.5928 13.2171 44.2716 8.03101Z" fill="#CF4044"/>
<path fill-rule="evenodd" clip-rule="evenodd" d="M64.5963 3.26804C63.0472 3.67456 58.4576 5.0661 56.4467 5.70114C54.4357 6.33617 54.2433 6.33858 54.3299 8.24128C54.4357 10.5697 54.6474 10.5697 56.0233 10.0417C57.3992 9.51254 64.0936 7.43184 66.0251 6.87979C67.5069 6.45644 67.5357 6.04872 67.2952 4.65717C66.9392 2.59331 66.6084 2.73884 64.5963 3.26804ZM48.9586 11.3647C47.4504 12.5554 41.5763 17.7151 38.163 21.6047C37.2309 22.6667 37.2104 22.3191 38.0836 25.018C38.4997 26.3001 38.8774 28.1944 40.7031 26.1293C42.53 24.0642 50.7049 17.2388 52.2925 15.9687C53.8801 14.6987 53.8957 14.4509 52.5306 12.0791C51.0236 9.45962 50.4668 10.1728 48.9586 11.3647Z" fill="#CF4044"/>
<path fill-rule="evenodd" clip-rule="evenodd" d="M80.8534 0.0136303C76.5681 0.251768 73.3124 2.55377 68.629 6.68149C66.2199 8.79906 63.8712 10.9845 61.5859 13.2351C58.7992 12.5002 56.4238 11.7437 55.9283 11.5236C55.2139 11.2061 54.817 11.2855 54.9758 12.3174C55.2115 13.8533 55.6156 15.3399 58.3554 16.5221C56.1482 18.8355 54.0151 21.2185 51.9593 23.6675C51.0826 24.715 51.0862 24.8582 52.2769 26.6839C53.3713 28.3629 53.9595 28.0514 54.6582 27.3201C57.036 24.8353 60.1679 21.4184 63.6558 17.9738C65.9181 18.4561 68.5196 18.7496 69.9664 18.936C69.3803 19.673 68.8203 20.4304 68.2874 21.2067C67.3265 22.6139 67.4936 23.5893 68.5256 25.2551C69.5575 26.9232 70.8276 28.3509 74.6378 26.8426C78.448 25.3344 81.7819 23.0324 82.5757 21.7624C83.3695 20.4923 83.4489 20.2542 81.4644 20.8098C79.4799 21.3643 76.9398 22.555 72.9708 23.1118C73.5301 22.045 74.5692 20.7196 75.79 19.3798C79.1347 19.5301 84.025 19.4604 88.0529 17.4759C90.6339 16.2046 90.1168 13.9038 88.6085 11.6812C87.1003 9.45857 85.5921 7.87099 80.9881 9.77609C78.3434 10.8706 75.6204 12.9104 73.1645 15.3495C71.3399 15.1318 68.7156 14.8263 67.2711 14.5364C70.4704 11.6187 73.838 8.90652 77.1226 6.99781C80.3603 5.11676 82.1247 5.41022 82.7585 6.91843C83.1879 7.93713 83.9805 8.28351 84.8224 7.63284C85.6968 6.95812 86.2921 5.72774 86.2115 4.45767C86.0299 1.54228 84.1825 -0.171588 80.8534 0.0136303ZM83.4621 12.6061C86.4785 11.336 88.1046 13.8437 84.8777 14.6194C83.1831 15.0259 81.4668 15.4613 79.6952 15.5792C81.1517 14.3151 82.7188 12.9188 83.4621 12.6061ZM150.004 1.78643C149.548 2.14484 147.584 4.14136 144.971 6.8583C141.518 7.35261 138.004 7.9203 134.445 8.56014C131.911 9.01597 132.442 9.51029 132.964 11.2061C133.387 12.582 133.741 13.1389 135.186 12.7937C136.485 12.4834 137.824 12.1923 139.179 11.9109C134.714 14.5497 127.227 18.5126 120.606 22.3192C122.894 19.9504 125.259 17.656 127.696 15.4397C128.755 14.4871 128.438 14.1684 127.378 12.3704C126.227 10.4123 126.107 9.83021 124.628 10.9944C123.146 12.1587 115.736 19.9908 111.715 24.436C110.711 25.5473 111.08 26.447 112.456 27.8229C113.832 29.1988 114.149 29.6221 116.584 28.2462C118.96 26.9052 129.918 20.4237 136.304 15.9809C132.373 20.1519 128.725 24.0632 127.145 25.8131C126.139 26.922 126.403 27.2949 127.779 28.5637C129.209 29.8843 129.472 30.363 131.906 28.9871C134.011 27.7988 145.676 19.7141 152.735 14.6699C149.815 17.4146 146.195 21.0888 143.64 24.4372C142.726 25.6327 142.792 25.919 144.168 27.5078C145.544 29.0965 145.862 29.2012 147.133 27.9311C148.402 26.6598 155.705 20.2048 162.265 17.453C159.197 21.7924 157.398 23.9092 156.447 25.0722C155.493 26.2377 155.916 26.8463 157.715 28.2486C159.177 29.3876 159.33 29.2096 161.117 28.0766C163.762 26.3988 166.879 25.1925 169.975 23.9044C170.144 25.9791 171.128 28.3533 173.045 28.3533C175.33 28.3533 183.944 23.4582 192.244 17.6743C192.897 18.5114 193.647 19.1284 194.321 19.66C191.129 21.1033 188.237 22.555 186.262 23.6963C184.658 24.6224 184.463 24.5419 185.202 26.1294C185.944 27.717 185.619 27.8794 186.896 28.0345C197.638 29.3431 201.885 25.9178 201.885 22.5309C201.885 21.0407 201.016 20.0124 200.147 19.2679C202.077 18.3406 204.813 17.4206 207.194 16.5185C208.002 19.6853 211.965 19.9547 212.268 22.0811C212.527 23.8912 206.567 24.6477 204.237 24.2243C201.908 23.801 202.728 25.1312 204.131 26.3411C205.679 27.6773 206.029 28.4783 209.317 28.2462C213.975 27.9155 218.525 26.1294 218.525 23.1647C218.525 19.0382 213.695 17.3183 212.915 15.6514C212.286 14.3055 214.293 13.6272 216.831 14.0638C217.839 15.2797 217.6 15.2905 219.808 14.8973C220.579 14.7637 221.347 14.6117 222.11 14.4414C222.686 14.3019 222.627 14.3019 222.5 13.5875C222.42 13.1052 222.311 12.6281 222.175 12.1587C221.858 11.0474 221.803 10.8886 215.243 10.3594C211.102 10.025 207.47 11.9626 207.089 14.9261C204.585 15.7007 201.16 16.7507 198.391 17.8956C195.483 15.4914 195.643 13.9447 198.868 13.9447C201.407 13.9447 202.912 14.1696 203.511 14.2743C204.86 14.5124 205.337 14.0097 205.099 12.475C204.894 11.1664 204.911 11.1484 203.869 10.6889C202.875 10.2524 200.652 9.82901 199.489 9.82901C192.689 9.82901 190.04 13.0763 191.386 16.2587C187.854 18.3683 179.728 22.3565 177.808 23.1647C176.002 23.9261 174.971 24.5888 175.391 21.8826C180.554 20.1435 188.921 17.3027 188.921 14.6988C188.921 11.4178 186.168 10.5711 183.206 10.5711C176.263 10.5711 171.458 16.8084 170.249 21.2212C168.933 21.6722 166.887 22.1448 165.335 22.6355C166.42 21.1538 167.785 18.2865 168.511 16.4969C169.251 14.6699 169.251 14.6447 168.191 13.5586C167.109 12.4485 167.055 12.475 165.969 12.6867C164.28 13.0174 160.889 14.5918 158.668 16.0735C160.147 14.5918 160.361 14.2742 160.997 13.5334C161.63 12.7925 161.208 12.2633 160.149 11.2049C158.934 9.98897 158.901 9.58245 157.945 10.2006C154.335 12.2008 144.984 17.8547 135.927 23.0577C138.123 20.793 144.578 14.4559 148.93 10.2235C160.614 8.5854 173.775 8.04177 187.685 9.08813C190.043 9.26613 189.167 8.34726 188.002 6.86551C186.838 5.38376 186.518 4.88945 184.51 4.74873C175.597 4.12693 165.01 4.50337 153.495 5.77705C153.986 5.12277 153.631 4.64409 152.758 3.15994C151.603 1.20311 151.485 0.621001 150.004 1.78643ZM187.931 25.7602C189.881 24.5034 193.799 22.6452 196.082 21.3739C197.837 23.2838 195.002 25.0927 187.931 25.7602ZM184.68 13.2243C187.332 13.7547 183.762 15.8943 176.461 18.8987C178.525 15.7957 182.359 12.7612 184.68 13.2243Z" fill="#CF4044"/>
<path fill-rule="evenodd" clip-rule="evenodd" d="M136.393 3.55321C135.619 1.57955 135.542 1.54468 134.53 1.54468C121.511 1.54468 109.857 2.91698 98.0896 5.03617C95.9836 5.41502 96.3036 5.8023 97.1154 7.46205C97.9477 9.16269 98.5863 9.20117 99.4294 9.07008C100.87 8.84637 102.43 8.56614 104.089 8.26546C102.286 9.86266 100.529 11.5119 98.8221 13.211C96.9411 13.4708 95.0687 13.7897 93.2078 14.1672C91.3977 14.5412 91.5877 14.6747 92.2059 16.4752C92.6738 17.8367 92.9768 18.319 93.737 18.1891L94.0449 18.1386C90.2262 22.229 86.6048 26.4818 84.0515 29.9769C83.129 31.2386 82.9835 31.8868 83.8061 34.1792C84.7827 36.8998 85.1628 37.0236 86.3198 35.5022C89.6682 31.0954 96.0654 23.6494 102.314 17.1163C106.337 16.8204 110.603 16.6015 116.077 16.8228C117.782 16.8925 117.742 16.2816 116.89 14.0373C116.153 12.0925 115.962 11.9349 114.904 11.9458C112.843 11.9638 110.088 12.0853 107.057 12.3222C109.341 10.1008 111.482 8.16563 113.302 6.7344C116.646 6.35314 121.433 5.9803 125.073 6.01157C125.906 7.50053 126.435 7.50535 127.811 7.30449C129.189 7.10484 132.843 6.71636 134.912 6.30864C137.127 5.87566 137.22 5.66158 136.393 3.55321Z" fill="#CF4044"/>
<path fill-rule="evenodd" clip-rule="evenodd" d="M107.737 40.8388C107.462 41.226 106.944 41.825 106.54 41.825C106.202 41.825 106.059 41.552 106.059 41.0709C106.059 40.3168 106.527 36.6004 106.683 36.159C106.462 36.2227 106.254 36.2769 106.032 36.3394V36.1325L107.541 35.4302C107.293 36.6377 106.838 40.1989 106.838 40.8099C106.838 41.0853 106.903 41.1743 107.02 41.1743C107.111 41.1743 107.293 41.0312 107.604 40.7065L107.737 40.8388ZM107.347 33.0656C107.502 33.0656 107.788 33.157 107.788 33.6622C107.788 34.0398 107.593 34.3008 107.281 34.3008C107.073 34.3008 106.813 34.195 106.813 33.7271C106.814 33.2087 107.086 33.0656 107.347 33.0656ZM114.105 40.9939C113.741 41.3692 113.312 41.825 112.831 41.825C112.403 41.825 112.325 41.4089 112.325 40.9278C112.325 40.0702 112.897 37.0827 112.897 36.6665C112.897 36.509 112.833 36.4693 112.754 36.4693C111.961 36.4693 110.102 39.9151 109.829 41.6157L109.114 41.6951C109.335 39.8092 109.646 37.8356 109.841 36.1843C109.62 36.236 109.413 36.2877 109.191 36.3394V36.1325L110.776 35.4302C110.543 36.5342 110.321 38.1194 110.152 39.4593H110.178C110.646 38.0689 112.206 35.56 113.271 35.56C113.635 35.56 113.739 35.7549 113.739 36.1963C113.739 36.7808 113.103 40.0041 113.103 40.7726C113.103 41.0192 113.195 41.1743 113.35 41.1743C113.531 41.1743 113.753 40.9795 113.935 40.8099L114.105 40.9939ZM115.64 35.7693H116.199L116.42 34.0518L117.213 33.7536L116.94 35.7693H118.045V36.159H116.888C116.525 38.7833 116.42 39.7972 116.42 40.5634C116.42 41.0565 116.537 41.1743 116.771 41.1743C117.044 41.1743 117.278 40.9278 117.734 40.4226L117.903 40.5778C117.474 41.214 117.046 41.825 116.421 41.825C116.032 41.825 115.642 41.4606 115.642 40.8905C115.642 40.1111 116.018 37.2234 116.15 36.159H115.642V35.7693H115.64ZM122.24 40.2001C121.733 40.917 120.89 41.8262 119.955 41.8262C118.836 41.8262 118.654 40.84 118.654 39.9536C118.654 37.4194 120.46 35.4314 121.747 35.4314C122.318 35.4314 122.578 35.8848 122.578 36.4837C122.578 37.862 120.875 39.0588 119.536 39.3679C119.506 39.614 119.494 39.862 119.499 40.1099C119.499 40.8893 119.772 41.3054 120.253 41.3054C120.929 41.3054 121.656 40.5261 122.06 40.0438L122.24 40.2001ZM121.265 36.082C120.966 36.082 120.745 36.1337 120.473 36.3923C119.966 36.8879 119.642 38.1615 119.576 39.0046C120.823 38.6546 121.799 37.642 121.799 36.6533C121.798 36.2769 121.577 36.082 121.265 36.082ZM123.644 36.1337L125.229 35.4314C125.049 36.3372 124.893 37.2476 124.761 38.1615H124.786C125.188 37.1861 125.957 35.4314 126.982 35.4314C127.138 35.4314 127.281 35.4566 127.476 35.4975L127.32 36.2769H127.034C126.137 36.2769 125.552 37.1861 125.018 38.4189C124.668 39.2247 124.41 40.8496 124.279 41.6157L123.564 41.6951C123.786 39.8092 124.097 37.8356 124.292 36.1843L123.641 36.3394V36.1337H123.644ZM132.274 41.0456C131.988 41.3319 131.52 41.825 131.119 41.825C130.648 41.825 130.638 41.3836 130.638 40.9422C130.638 40.395 130.766 39.173 130.872 38.2902L130.844 38.265C130.391 39.6156 129.494 41.8262 128.364 41.8262C127.585 41.8262 127.337 41.0204 127.337 40.1376C127.337 37.7069 129.001 35.4326 130.716 35.4326C131.054 35.4326 131.289 35.5095 131.47 35.5613L131.977 35.3027C131.756 36.8337 131.418 39.6409 131.418 40.7859C131.418 41.0589 131.443 41.2417 131.599 41.2417C131.73 41.2417 132.015 40.9687 132.131 40.8917L132.274 41.0456ZM128.648 41.0456C129.56 41.0456 131.12 36.8482 131.12 36.1855C131.12 36.0568 130.716 36.0159 130.455 36.0159C130.028 36.0159 129.637 36.0929 129.325 36.4428C128.637 37.2222 128.118 39.1213 128.118 40.1352C128.117 40.7594 128.257 41.0456 128.648 41.0456ZM136.59 39.784C136.355 40.4744 135.42 41.825 134.445 41.825C133.471 41.825 133.107 40.6956 133.107 39.5254C133.107 37.5241 134.472 35.4314 136.094 35.4314C136.329 35.4314 136.498 35.4566 136.668 35.5083L136.459 36.2107C136.252 36.1855 136.017 36.1337 135.667 36.1446C135.056 36.1446 134.899 36.236 134.615 36.6774C134.263 37.2222 133.887 38.55 133.887 39.3667C133.887 40.1725 134.042 41.1094 134.627 41.1094C135.421 41.1094 136.109 40.1977 136.356 39.7046L136.59 39.784ZM138.044 35.7693H138.603L138.824 34.0518L139.618 33.7536L139.345 35.7693H140.449V36.159H139.291C138.929 38.7833 138.823 39.7972 138.823 40.5634C138.823 41.0565 138.941 41.1743 139.176 41.1743C139.449 41.1743 139.681 40.9278 140.137 40.4226L140.306 40.5778C139.879 41.214 139.449 41.825 138.824 41.825C138.435 41.825 138.045 41.4606 138.045 40.8905C138.045 40.1111 138.423 37.2234 138.553 36.159H138.045V35.7693H138.044ZM143.139 40.8388C142.863 41.226 142.345 41.825 141.943 41.825C141.605 41.825 141.462 41.552 141.462 41.0709C141.462 40.3168 141.93 36.6004 142.085 36.159C141.864 36.2227 141.658 36.2769 141.437 36.3394V36.1325L142.945 35.4302C142.696 36.6377 142.243 40.1989 142.243 40.8099C142.243 41.0853 142.306 41.1743 142.423 41.1743C142.514 41.1743 142.696 41.0312 143.007 40.7065L143.139 40.8388ZM142.749 33.0656C142.904 33.0656 143.19 33.157 143.19 33.6622C143.19 34.0398 142.995 34.3008 142.683 34.3008C142.473 34.3008 142.215 34.195 142.215 33.7271C142.216 33.2087 142.488 33.0656 142.749 33.0656ZM143.983 36.1337L145.425 35.4314C145.425 37.2631 145.605 39.4857 145.841 40.8508C146.555 40.0053 147.765 37.8633 147.765 36.9251C147.765 36.5234 147.585 36.4056 147.063 36.1337L147.556 35.4314C148.012 35.5348 148.48 35.9124 148.48 36.444C148.48 37.6937 146.582 40.5525 145.816 41.6963L145.257 41.825C144.881 40.0955 144.581 36.8879 144.581 36.1855L143.984 36.3406V36.1337H143.983ZM152.587 40.2001C152.08 40.917 151.234 41.8262 150.3 41.8262C149.181 41.8262 149.001 40.84 149.001 39.9536C149.001 37.4194 150.807 35.4314 152.092 35.4314C152.665 35.4314 152.923 35.8848 152.923 36.4837C152.923 37.862 151.222 39.0588 149.883 39.3679C149.852 39.6139 149.839 39.8619 149.844 40.1099C149.844 40.8893 150.117 41.3054 150.598 41.3054C151.274 41.3054 152.003 40.5261 152.404 40.0438L152.587 40.2001ZM151.612 36.082C151.311 36.082 151.09 36.1337 150.818 36.3923C150.31 36.8879 149.987 38.1615 149.921 39.0046C151.168 38.6546 152.143 37.642 152.143 36.6533C152.143 36.2769 151.922 36.082 151.612 36.082ZM156.876 35.7693C157.396 35.7693 157.616 35.5997 157.707 34.7422C157.877 32.8563 158.877 32.2189 159.8 32.2189H160.073C160.051 32.4603 160.011 32.6999 159.955 32.9357C159.775 32.9081 159.565 32.8696 159.332 32.8696C158.799 32.8696 158.681 33.1426 158.553 34.0915L158.343 35.637H159.579V36.159H158.268L157.669 40.6295C157.344 43.0867 157.006 43.5545 155.733 43.9959L155.682 43.7493C156.396 43.4366 156.709 42.6573 156.863 41.1888C157.046 39.5002 157.319 37.8079 157.528 36.159H156.877V35.7693H156.876ZM161.553 40.8388C161.28 41.226 160.762 41.825 160.358 41.825C160.022 41.825 159.879 41.552 159.879 41.0709C159.879 40.3168 160.347 36.6004 160.502 36.159C160.281 36.2227 160.075 36.2769 159.854 36.3394V36.1325L161.36 35.4302C161.113 36.6377 160.66 40.1989 160.66 40.8099C160.66 41.0853 160.723 41.1743 160.84 41.1743C160.932 41.1743 161.113 41.0312 161.425 40.7065L161.553 40.8388ZM161.164 33.0656C161.321 33.0656 161.605 33.157 161.605 33.6622C161.605 34.0398 161.41 34.3008 161.1 34.3008C160.891 34.3008 160.632 34.195 160.632 33.7271C160.632 33.2087 160.905 33.0656 161.164 33.0656ZM162.958 35.7693H163.517L163.739 34.0518L164.53 33.7536L164.257 35.7693H165.361V36.159H164.205C163.841 38.7833 163.738 39.7972 163.738 40.5634C163.738 41.0565 163.853 41.1743 164.087 41.1743C164.361 41.1743 164.595 40.9278 165.051 40.4226L165.218 40.5778C164.791 41.214 164.361 41.825 163.739 41.825C163.349 41.825 162.959 41.4606 162.959 40.8905C162.959 40.1111 163.335 37.2234 163.467 36.159H162.958V35.7693ZM171.535 40.9939C171.17 41.3692 170.741 41.825 170.261 41.825C169.832 41.825 169.753 41.4089 169.753 40.9278C169.753 40.0702 170.325 37.0827 170.325 36.6665C170.325 36.509 170.261 36.4693 170.182 36.4693C169.39 36.4693 167.532 39.9151 167.257 41.6157L166.542 41.6951C166.764 39.8092 167.075 37.8356 167.27 36.1843L166.619 36.3394V36.1325L168.204 35.4302C167.972 36.5342 167.751 38.1194 167.581 39.4593H167.607C168.075 38.0689 169.634 35.56 170.7 35.56C171.064 35.56 171.168 35.7549 171.168 36.1963C171.168 36.7808 170.532 40.0041 170.532 40.7726C170.532 41.0192 170.621 41.1743 170.778 41.1743C170.959 41.1743 171.18 40.9795 171.363 40.8099L171.535 40.9939ZM176.059 40.2001C175.552 40.917 174.706 41.8262 173.772 41.8262C172.653 41.8262 172.473 40.84 172.473 39.9536C172.473 37.4194 174.279 35.4314 175.564 35.4314C176.138 35.4314 176.397 35.8848 176.397 36.4837C176.397 37.862 174.694 39.0588 173.356 39.3679C173.324 39.6139 173.311 39.8619 173.316 40.1099C173.316 40.8893 173.589 41.3054 174.07 41.3054C174.746 41.3054 175.475 40.5261 175.877 40.0438L176.059 40.2001ZM175.084 36.082C174.783 36.082 174.562 36.1337 174.29 36.3923C173.783 36.8879 173.459 38.1615 173.393 39.0046C174.643 38.6546 175.618 37.642 175.618 36.6533C175.617 36.2769 175.397 36.082 175.084 36.082ZM180.297 36.3406C179.932 36.2227 179.554 36.082 179.035 36.082C178.399 36.082 177.707 36.2516 177.707 36.9251C177.707 37.8079 180.138 38.6799 180.138 39.8357C180.138 41.0312 179.008 41.825 177.942 41.825C177.552 41.825 177.059 41.748 176.706 41.5123L176.838 40.7726C177.15 40.9422 177.565 41.1743 178.203 41.1743C178.994 41.1743 179.553 40.8099 179.553 40.2254C179.553 39.1983 177.124 38.4333 177.124 37.3028C177.124 36.1073 178.319 35.4302 179.254 35.4302C179.604 35.4302 180.111 35.5071 180.294 35.637V36.3406H180.297ZM184.621 36.3406C184.257 36.2227 183.882 36.082 183.36 36.082C182.724 36.082 182.034 36.2516 182.034 36.9251C182.034 37.8079 184.465 38.6799 184.465 39.8357C184.465 41.0312 183.333 41.825 182.267 41.825C181.879 41.825 181.384 41.748 181.034 41.5123L181.162 40.7726C181.475 40.9422 181.89 41.1743 182.528 41.1743C183.321 41.1743 183.881 40.8099 183.881 40.2254C183.881 39.1983 181.45 38.4333 181.45 37.3028C181.45 36.1073 182.645 35.4302 183.58 35.4302C183.932 35.4302 184.437 35.5071 184.62 35.637V36.3406H184.621ZM192.197 36.3406C191.833 36.2227 191.458 36.082 190.936 36.082C190.3 36.082 189.61 36.2516 189.61 36.9251C189.61 37.8079 192.04 38.6799 192.04 39.8357C192.04 41.0312 190.911 41.825 189.844 41.825C189.454 41.825 188.961 41.748 188.611 41.5123L188.74 40.7726C189.052 40.9422 189.467 41.1743 190.105 41.1743C190.898 41.1743 191.458 40.8099 191.458 40.2254C191.458 39.1983 189.027 38.4333 189.027 37.3028C189.027 36.1073 190.223 35.4302 191.157 35.4302C191.509 35.4302 192.015 35.5071 192.197 35.637V36.3406ZM195.899 35.4314C197.003 35.4314 197.316 36.5607 197.316 37.5361C197.316 39.357 196.261 41.825 194.418 41.825C193.403 41.825 193.039 40.7582 193.039 39.9007C193.038 38.4706 194.027 35.4314 195.899 35.4314ZM194.793 41.3066C195.094 41.3066 195.352 41.2008 195.572 40.9807C196.248 40.306 196.536 37.9523 196.536 37.4339C196.536 36.4068 196.106 36.0171 195.56 36.0171C194.976 36.0171 194.858 36.1975 194.468 36.9781C194.143 37.6287 193.817 38.9277 193.817 39.7479C193.805 40.5898 194.093 41.3066 194.793 41.3066ZM200.329 40.8508C199.809 41.4762 199.354 41.8262 199.042 41.8262C198.758 41.8262 198.574 41.6458 198.574 40.9807C198.574 40.6307 198.589 40.1496 198.666 39.5639L199.497 32.8575C199.285 32.9371 199.068 32.9982 198.846 33.0404V32.8311C199.29 32.6615 199.938 32.3777 200.369 32.1311L199.445 39.096C199.393 39.5519 199.302 40.4238 199.302 40.7738C199.302 41.1118 199.379 41.1755 199.471 41.1755C199.589 41.1755 199.681 41.0986 200.134 40.6969L200.329 40.8508ZM206.631 40.9025C206.215 41.3584 205.877 41.8262 205.409 41.8262C205.045 41.8262 204.813 41.5279 204.813 40.84C204.813 40.3589 204.916 39.3691 205.034 38.6041L205.009 38.5789C204.1 40.8268 203.372 41.8274 202.396 41.8274C202.007 41.8274 201.68 41.5147 201.68 40.9182C201.68 39.6709 202.279 36.5511 202.279 36.1867L201.628 36.3418V36.135L203.213 35.4326C202.915 36.7062 202.459 40.1123 202.459 40.6054C202.459 40.9182 202.565 41.0469 202.745 41.0469C203.812 41.0469 205.085 37.7466 205.449 35.797L206.203 35.5625C205.956 37.031 205.592 39.6312 205.592 40.8003C205.592 41.125 205.629 41.2417 205.747 41.2417C205.942 41.2417 206.215 40.917 206.41 40.7221L206.631 40.9025ZM208.077 35.7693H208.636L208.857 34.0518L209.649 33.7536L209.376 35.7693H210.482V36.159H209.324C208.96 38.7833 208.856 39.7972 208.856 40.5634C208.856 41.0565 208.974 41.1743 209.206 41.1743C209.482 41.1743 209.714 40.9278 210.17 40.4226L210.339 40.5778C209.91 41.214 209.482 41.825 208.857 41.825C208.468 41.825 208.078 41.4606 208.078 40.8905C208.078 40.1111 208.453 37.2234 208.586 36.159H208.078V35.7693H208.077ZM213.169 40.8388C212.896 41.226 212.378 41.825 211.974 41.825C211.636 41.825 211.493 41.552 211.493 41.0709C211.493 40.3168 211.963 36.6004 212.118 36.159C211.897 36.2227 211.689 36.2769 211.467 36.3394V36.1325L212.976 35.4302C212.729 36.6377 212.273 40.1989 212.273 40.8099C212.273 41.0853 212.339 41.1743 212.456 41.1743C212.547 41.1743 212.729 41.0312 213.041 40.7065L213.169 40.8388ZM212.78 33.0656C212.937 33.0656 213.221 33.157 213.221 33.6622C213.221 34.0398 213.026 34.3008 212.713 34.3008C212.507 34.3008 212.246 34.195 212.246 33.7271C212.246 33.2087 212.519 33.0656 212.78 33.0656ZM216.834 35.4314C217.94 35.4314 218.251 36.5607 218.251 37.5361C218.251 39.357 217.198 41.825 215.355 41.825C214.339 41.825 213.976 40.7582 213.976 39.9007C213.975 38.4706 214.964 35.4314 216.834 35.4314ZM215.73 41.3066C215.875 41.3084 216.019 41.2805 216.153 41.2244C216.287 41.1683 216.408 41.0854 216.509 40.9807C217.185 40.306 217.47 37.9523 217.47 37.4339C217.47 36.4068 217.043 36.0171 216.495 36.0171C215.91 36.0171 215.795 36.1975 215.405 36.9781C215.079 37.6287 214.754 38.9277 214.754 39.7479C214.741 40.5898 215.027 41.3066 215.73 41.3066ZM224.593 40.9939C224.228 41.3692 223.801 41.825 223.319 41.825C222.89 41.825 222.811 41.4089 222.811 40.9278C222.811 40.0702 223.385 37.0827 223.385 36.6665C223.385 36.509 223.319 36.4693 223.242 36.4693C222.448 36.4693 220.59 39.9151 220.317 41.6157L219.603 41.6951C219.824 39.8092 220.133 37.8356 220.329 36.1843C220.108 36.236 219.902 36.2877 219.681 36.3394V36.1325L221.266 35.4302C221.031 36.5342 220.81 38.1194 220.64 39.4593H220.666C221.134 38.0689 222.694 35.56 223.759 35.56C224.124 35.56 224.227 35.7549 224.227 36.1963C224.227 36.7808 223.591 40.0041 223.591 40.7726C223.591 41.0192 223.682 41.1743 223.837 41.1743C224.02 41.1743 224.241 40.9795 224.422 40.8099L224.593 40.9939ZM229.014 36.3406C228.649 36.2227 228.272 36.082 227.752 36.082C227.116 36.082 226.427 36.2516 226.427 36.9251C226.427 37.8079 228.856 38.6799 228.856 39.8357C228.856 41.0312 227.727 41.825 226.66 41.825C226.27 41.825 225.777 41.748 225.427 41.5123L225.556 40.7726C225.869 40.9422 226.284 41.1743 226.921 41.1743C227.715 41.1743 228.272 40.8099 228.272 40.2254C228.272 39.1983 225.842 38.4333 225.842 37.3028C225.842 36.1073 227.038 35.4302 227.972 35.4302C228.322 35.4302 228.83 35.5071 229.013 35.637V36.3406H229.014Z" fill="black"/>
</g>
<defs>
<filter id="filter0_d_0_183" x="0" y="0" width="233.014" height="51.9958" filterUnits="userSpaceOnUse" color-interpolation-filters="sRGB">
<feFlood flood-opacity="0" result="BackgroundImageFix"/>
<feColorMatrix in="SourceAlpha" type="matrix" values="0 0 0 0 0 0 0 0 0 0 0 0 0 0 0 0 0 0 127 0" result="hardAlpha"/>
<feOffset dy="4"/>
<feGaussianBlur stdDeviation="2"/>
<feComposite in2="hardAlpha" operator="out"/>
<feColorMatrix type="matrix" values="0 0 0 0 0 0 0 0 0 0 0 0 0 0 0 0 0 0 0.25 0"/>
<feBlend mode="normal" in2="BackgroundImageFix" result="effect1_dropShadow_0_183"/>
<feBlend mode="normal" in="SourceGraphic" in2="effect1_dropShadow_0_183" result="shape"/>
</filter>
</defs>
</svg>
